<?xml version="1.0" encoding="UTF-8"?>
<svg id="Layer_2" data-name="Layer 2" xmlns="http://www.w3.org/2000/svg" xmlns:xlink="http://www.w3.org/1999/xlink" viewBox="0 0 2047 2494.37">
  <defs>
    <style>
      .cls-1 {
        fill: url(#linear-gradient);
        stroke-width: 0px;
      }
    </style>
    <linearGradient id="linear-gradient" x1="451.62" y1="610.31" x2="1698.3" y2="2392.37" gradientUnits="userSpaceOnUse">
      <stop offset="0" stop-color="#162228"/>
      <stop offset="1" stop-color="#273e47"/>
    </linearGradient>
  </defs>
  <g id="Layer_1-2" data-name="Layer 1">
    <path class="cls-1" d="M1880.8,172.07c-.85-.74-1.42-1.24-2.27-1.98v-48.01c-4.87-2.04-8.21-6.24-13.92-5.98-1.27-2.75.39-4.2,2.18-5.64.22-.18.15-.63.22-.95-.83-.19-1.55-.35-2.56-.58v-8.68c-1.93-2.15-3.24-4.74-5.5-5.84-2.6-1.27-5.23-2.68-6.41-4.72-1.38-2.39-4.17-2.93-6.05-5.12v-7.36h-4.46c-1.18,4.09-6,5.44-9.16,8.24-6.38,5.66-12.85,11.24-19.26,16.87-.25.22-.29.63-.5,1.13,1.55.79,3.06,1.57,4.55,2.33v7c-1.32.59-2.66,1.19-4.98,2.23h-8.84c-1.15,3.18-2.2,6.06-3.4,9.38,1.58,3.2,2.04,19.6.64,33.97-3.56-.28-7.18.33-10.71-.4v-20.01c-4.25-1.22-6.38-4.63-9.61-6.9v-28.05c0-1.4.68-3.31-.11-4.12-3.99-4.07-4.19-9.33-5.89-14.01-2.98-8.21-7.44-16.35-4.76-25.42-1.86-1.03-3.34-1.85-5.25-2.9v-15.37c-2.31-.92-4.33-1.73-5.9-2.35-.74-7.76-1.45-15.25-2.23-23.5-1.31-.95-3.13-2.28-4.76-3.48-.8-4.17-1.54-8-2.27-11.84.71,5.25-5.74,8.6-4.26,13.3-1.45.74-2.72,1-2.99,1.6-1.86,4.11-2.66,8.48-3.2,12.83-.4,3.19-.08,6.45-.08,9.72-1.78.9-3.3,1.66-4.81,2.43,0,3.74.26,7.49-.07,11.21-.31,3.51-1.24,6.97-1.88,10.4-5.76.06-9.82,1.51-12.67,6.23-2.7,4.48-7.19,8.11-10.44,12.37-2.94,3.85-6.69,6.97-10.25,10.31-1.54,1.45-2.32,3.69-4.09,4.72-2.62,1.53-5.82,2.32-7.65,3-1.75,2.39-2.66,4.15-4.1,5.48-2.75,2.54-5.8,4.83-8.48,7.03v38.41c-1.99-1.08-3.37-1.83-4.7-2.54.82-4.79-1.41-9.52,1.48-13.11-1.98-5.89-1.77-11.88-6.27-16.68,1.55-.85,3.04-1.67,4.76-2.61.93-3.34-.5-6.28-3.52-8.78-1.45-.24-2.91-.48-4.76-.79.56-1.71,1.03-3.15,1.6-4.88-.93-1.24-2.16-2.9-3.28-4.39h-3.53c-.79.69-1.54,1.35-2.58,2.26v8.08c-1.93,1.16-3.35,2.02-4.49,2.71,0,2.71-.84,5.4.22,7.26,1.21,2.13,1.94,3.44.02,5.44-.68.7-.3,2.2-.35,3.34-.28,6.33.07,12.56,3.12,18.49.39.76-.29,1.95-.55,3.32-1.3-.61-2.23-.77-2.53-1.23-1.19-1.89-3.32-4.02-3.01-5.79.56-3.23-3.68-3.93-3.45-6.58.27-3.04-2.79-3.28-4.78-4.41,3.14-2.51.82-5.7,1.65-8.29-.99-.88-1.75-1.54-2.49-2.19-2.15,0-4.29,0-6.43,0-1.32,1.16-2.65,2.31-4.3,3.76.6,1.69,1.25,3.54,1.97,5.61-1.47.82-2.96,1.64-4.48,2.48-.63,1.69-1.31,3.55-2.01,5.42,2.75,2.16,1.69,4.34-.35,6.97,2.21,1.18,2.82,2.97,1.2,5.23-2.45-2.14-5.48-3.93-7.07-6.43-1.4-2.2-2.51-4.18-4.9-5.87-2.53-1.8-4.17-4.56-6.51-7.26-.7-4.09-1.81-8.54-8.18-9.88-2.7,1.01-5.41,2.01-7.87,2.93v5.7c1.35,1.73,2.44,3.13,3.99,5.1h-7.02c-6.14-9.39-12.19-18.63-18.49-28.28,1.3-.81,2.35-1.47,3.78-2.37.69.37,1.74,1.41,2.78,1.4,6.47-.04,12.58,1.4,18.75,2.81,2,.46,4.61.7,6.34-.04,7.59-3.23,16.15-4.13,23.24-7.36v-4.96c-5.24-1.52-10.19-2.92-15.11-4.4-6.81-2.05-13.81-3.53-20.68-5.42-10.32-2.85-21.11-4.17-31.78-5.72-5.6-.81-11.5-.39-16.91-1.67-3.61-.86-7.3-.43-10.56-1.37-3.59-1.03-7.04-1.18-10.63-1.22-.79-.01-1.95.26-2.32-.1-2.68-2.52-6.06-.79-9.05-1.29-2.98-.5-5.95-1.11-8.96-1.38-6.45-.58-13.12-.3-19.32-1.67-4.16-.92-8.15-.87-12.23-1.23-1.68-.14-3.28-.95-4.54-1.34-2.77,1.72-5.25,3.27-8.43,5.25,9.79,1.69,18.88,3.26,27.71,4.78.79,1.89,1.42,3.41,2.01,4.83-9.01,2.43-17.33-2.32-26.97-.15,5.04,3.58,9.89,3.72,14.82,3.48.8.7,1.55,1.36,2.23,1.95v59.42h-20.65c0-8.5.04-16.67-.03-24.83-.01-1.53.26-2.98-.95-4.57-3.19-4.18-4.7-8.88-3.85-14.01.15-.92.47-2.18-.05-2.75-2.67-2.89-1.07-6.19-1.54-9.28-.5-3.31-1.48-6.62-1.49-9.93-.02-4.32-.32-8.52-2.35-12.78-1.45,0-3.02,0-4.58,0-8.91-.04-17.61,1.98-26.62,1.52-8.21-.42-16.56.46-23.69-4.29-.34-.23-1.1.1-1.57-.05-9.68-3.13-19.35-6.3-29.26-9.54-2.35,2.64-4.85,5.44-7.32,8.2-3.59-2.57-4.44-5.69-4.23-9.28.26-4.39-1.51-8.24-4.61-11.26-.69-5.25.91-10.35-1.75-15.15-3.24-5.84-3.6-12.1-3.24-18.45.1-1.85.02-3.71.02-4.93-1.58-1.63-2.77-2.86-3.76-3.88-1.54.69-2.86,1.29-3.79,1.7-.79,1.45-1.75,2.57-1.99,3.79-.32,1.59-.07,3.26-.08,4.89-.04,4.99.86,10.17-1.75,14.77-1.25,2.21-1.42,4.26-1.45,6.49-.04,3.24-.01,6.49-.01,9.45-1.55,1.9-3.02,3.45-4.14,5.17-.97,1.49-1.96,3.13-2.18,4.79-.42,3.1-.6,6.13-1.44,9.27-1.53,5.66-1.51,11.65-2.15,17.57-.67.56-1.41,1.18-2.18,1.82-1.07-1.88-2.09-3.69-3.62-6.38-2.97,5.73-5.52,10.66-8.34,16.11v11.93c-4.17,3.71-4.37,9.66-9.63,12.53v27.51c-.82.49-2.15,1.28-3.59,2.14v28.63h-1.23v-53.8c-5.6-6.63-10.92-12.93-16.19-19.17h-19.11c0-3.93-.18-7.64.04-11.32.31-5.19-1.25-10.51,1.48-15.57.48-.89.05-2.27-.25-3.36-.52-1.9-1.27-3.75-2.01-5.85-.37-.07-1.1-.21-1.83-.34-4.54-10.33-.11-10.05-18.24-20.04v-14.91c-1.75-1.85-2.93-3.09-3.87-4.07h-8.91c-1.7,2.23-3.52,4.61-5.03,6.61,2.9,5.15,2.06,9.6.29,12.86-3.86,2.48-6.81,4.17-9.48,6.14-5.23,3.84-6.73,9.71-9.76,14.69-1.69,2.78-1.5,6.51-1.71,9.84-.09,1.41,1.38,2.87,1.43,4.32.18,5.55.07,11.1.07,16.89h-21.7c-2.95,2.73-3.71,6.96-8.34,7.44-1.49,9.22-8.37,15.46-14.01,22.2h-5.8v47.3h-5.92c-.68-4.16-1.86-8.12-1.9-12.09-.2-18.92-.09-37.83-.09-56.75,0-1.4-.65-3.24.12-4.12,2.6-2.98.98-6.11,1.52-8.85-1.36-1.15-2.31-1.96-3.54-3v-11.53h-6.24v7.21c-3.03-2.41-5.48-4.37-7.9-6.3-6.02,3.96-11.61,7.63-18.1,11.89.56-8.92,1.06-17.05,1.54-24.73-2.51-1.77-4.88-3.43-6.94-4.87-2.6-.2-4.83-.37-7.38-.57.89-1.88,1.53-3.22,2.23-4.7-5.45-.25-5.5-.19-6.69,2.85-.4,1.02-.99,1.98-1.59,2.92-.17.26-.71.34-1.48.69-.74-1.44-1.45-2.82-2.21-4.31,1.69-1.96,4.76-3.07,3.43-6.47-.74-.51-1.99-1.36-3.62-2.48,1.63-1.12,2.88-1.98,3.63-2.49.89-3.81-1.02-7.33,1.29-10.03-.95-1.51-1.55-3.05-2.7-4.15-1.31-1.25-3.11-2.12-4.15-2.8-1.26-2.08-2.25-3.7-3.28-5.4-5.4,2.23-4.92,6.67-6.14,11.01-1.82-1.31-2.93-2.12-3.8-2.75,1.56-2.65,2.98-5.07,4.45-7.57-1.13-.89-2.11-1.66-2.84-2.23,1.46-3.09,2.85-6.01,4.01-8.47-2.84-2.14-5.58-4.19-8.55-6.42-.95,1.29-2.01,2.72-2.84,3.85h-5.83V3.38c-2.18-2.53-4.75-2.23-8.06-1.72-1.23,2.5-2.58,5.28-3.83,7.82h-3.73c-.25-1.51-.46-2.77-.8-4.75-3.47,2.32-6.22,4.16-9.55,6.39.98,2.95,2.08,6.22,3.06,9.16-1.12,1.6-2.16,3.08-2.97,4.43,2.45,1.66,4.09,3.23,5.71,4.77-3.2,3.01-3.71-.5-5.34-.55,0-1.48,0-2.63-.37-4.23-.81-.33-1.5-1.35-2.2-2.39-1.28.05-2.52.1-3.8.15v3.71c-4.87.29-5.8,4.21-7.95,6.86v11.23c1.19.43,2.24.81,3.48,1.25-1.61,2.27-2.91,4.1-4.3,6.07,1.7,1.71,2.99,3.02,4.51,4.55-1.04,1.59-1.88,2.89-3.19,4.89-.91-2.86-1.32-5.05-2.34-7-.56-1.07-2.13-1.75-3.07-2.47-1.43.93-2.41,1.57-2.69,1.75.5,2.08.84,3.52,1.26,5.28h-6.65c-3.19,1.98-5.67,3.53-8.07,5.02,3.36,11.36.8,22.67,1.78,33.52-1.92,1.03-3.42,1.83-4.36,2.34.58,2.52,1.05,4.61,1.61,7.06.76.54,1.78,1.28,2.29,1.64v42.74c-1.27.42-2.14.71-2.58.86.59,2.75,1.09,5.07,1.57,7.3-4.09,1.53-6.93-.08-10.1-1.56v-4.63c-1.65-.89-3.12-1.68-4.51-2.43v-20.96c1.02-.89,1.96-1.71,2.97-2.6v-4.6c-4.24-.93-6.56-3.87-10.02-5.72.93-1.19,1.47-1.88,2.4-3.06h-7.37c-1.13-.99-1.7-1.49-2.28-1.99,2.91-3.37,5.95-6.68,6.96-10.66,2.85-.11,3.32,2.52,5.65,2.63-.6-2.59-2.3-5.32-1.37-6.75,3.98-6.17-1.5-11.89-.39-17.79-2.3-4.02-3.08-8.36-3.17-12.63-1.54-.63-2.83-1.16-4.08-1.67-.51.35-1.04.7-1.92,1.3-.96-3.09-1.81-5.81-2.65-8.52-4.83.53-5.05.72-5.67,3.95-.26,1.4-.73,2.77-1.11,4.2.37.29.76.6,1.16.93-5.24,2.02-8.56,5.65-10.88,9.56.68,1.8,1.3,3.44,1.92,5.07,1.8.07,3.6.14,5.82.22-.59,4.96-1.37,9.61-1.64,14.28-.28,4.86-.06,9.73-.06,14.48-5.47,1.97-6.79,6.24-8.46,10.01-2.03.77-3.84,1.46-5.82,2.21v4.57c1.02.89,1.96,1.71,2.83,2.47v21.6c-1.09.86-2.08,1.63-3.31,2.59v10.13c-3.9.44-6.5,4.06-10.75,2.68v-38.95c2.04-3.03,3.54-5.27,5.17-7.7-7.59-5.98-14.82-11.69-22.35-17.63h-37.66c.99-7.5-2.19-15.07,3.42-22.43h-7.86c-.27-1.15-.42-1.78-.6-2.51-3.21-.13-6.29-.26-9.59-.39v-11.66c-2.26,1.34-3.86,2.29-6.3,3.73-10.7-1.26-18-8.93-27.17-14.42h-12.18c-8.55-8.49-14.53-6.03-20.67.16-4.28,0-8.55,0-12.09,0-7.98,4.86-15.46,9.43-22.69,13.83h-6.52c-2.1-1.24-3.54-2.09-5.82-3.44v11.9h-7.27c-1.23,1.07-2.17,1.9-3.13,2.74-2.46.17-4.93.34-7.85.54,1.44,1.26,2.39,2.09,3.61,3.15,0,3.22.07,6.7-.02,10.17-.09,3.39.41,6.83-.31,10.18h-40.04c-6.1,5.11-12.71,10.65-19.86,16.65,6.05,5.32,5.94,11.83,5.71,18.42-.18,5.13-.04,10.27-.04,15.41v18.01h-6.26v-30.22c-1.63-.88-3.12-1.69-5.01-2.71v-21.89c-4.14,1.22-7.03-.63-10.14-2.18-2.56-1.27-5.63-1.8-8.09-3.18-2.63-1.48-5.8-2.64-8.34-2.53-12.18.55-24.13-2.03-36.25-1.57-4.92.18-9.63-.37-15.57-2.67h19.05c0-4.88,1-9.5-.27-13.59-1.35-4.34-1.57-8.56-1.2-12.79.39-4.43-1.85-8.36-2-12.62-2.99-.39-5.91-.77-9.2-1.19-.8.36-2.09.95-3.68,1.67v23.54c-4.08-8.22-2.53-16.19-2.95-23.68-2.44-3.31-5.88-1.85-8.8-2.12-.84.73-1.59,1.39-2.37,2.07,0,2.31.12,4.65-.04,6.98-.14,2.04.74,4.25-1.36,7.45v-12.15c-1.18-2.01-1.87-3.17-2.58-4.39-3.7,0-7.44.1-11.17-.03-3.33-.12-5.9,1.13-8.24,2.95-1.39,1.08-2.74,2.2-4.21,3.38v3.58c-1.12-.67-1.9-1.15-3.29-1.98-3.12,3.36-6.15,6.62-9.6,10.34v25c-1.65.27-2.96.34-4.15.7-2.06.63-4.04,1.44-6.06,2.18-1.64-2.28-4.5-.59-6.5-1.51-9.82-4.51-20.43-4.13-31.01-3.95-1,.02-2.01.23-2.98.46-7.2,1.7-12.76,5.93-18.75,9.47-1.13.66-1.51,2.23-2.39,3.29-4.27,5.17-5.34,11.01-4.79,17.18.27,3.09.64,6.18,1.04,9.99-.1.14-.76,1.05-.95,1.31,2.25,3.95,4.68,7.11,5.82,10.6.89,2.75.18,5.89.18,8.57-3.45,2.05-6.78,4.03-10.89,6.48h-6.24L0,2494.37l2047-21L1895.41,172.35c-4.34,0-10.98-.28-14.61-.28Z"/>
  </g>
</svg>