<?xml version="1.0" encoding="UTF-8"?>
<svg id="Layer_2" data-name="Layer 2" xmlns="http://www.w3.org/2000/svg" xmlns:xlink="http://www.w3.org/1999/xlink" viewBox="0 0 1455.82 2489.73">
  <defs>
    <style>
      .cls-1 {
        fill: url(#linear-gradient);
        stroke-width: 0px;
      }
    </style>
    <linearGradient id="linear-gradient" x1="156.66" y1="495.69" x2="1369.2" y2="2228.95" gradientUnits="userSpaceOnUse">
      <stop offset="0" stop-color="#162228"/>
      <stop offset="1" stop-color="#273e47"/>
    </linearGradient>
  </defs>
  <g id="parallax_scroll_background" data-name="parallax scroll background">
    <path class="cls-1" d="M1441.21,172.07c-.85-.74-1.42-1.24-2.27-1.98v-48.01c-4.87-2.04-8.21-6.24-13.92-5.98-1.27-2.75.39-4.2,2.18-5.64.22-.18.15-.63.22-.95-.83-.19-1.55-.35-2.56-.58v-8.68c-1.93-2.15-3.24-4.74-5.5-5.84-2.6-1.27-5.23-2.68-6.41-4.72-1.38-2.39-4.17-2.93-6.05-5.12v-7.36h-4.46c-1.18,4.09-6,5.44-9.16,8.24-6.38,5.66-12.85,11.24-19.26,16.87-.25.22-.29.63-.5,1.13,1.55.79,3.06,1.57,4.55,2.33v7c-1.32.59-2.66,1.19-4.98,2.23h-8.84c-1.15,3.18-2.2,6.06-3.4,9.38,1.58,3.2,2.04,19.6.64,33.97-3.56-.28-7.18.33-10.71-.4v-20.01c-4.25-1.22-6.38-4.63-9.61-6.9v-28.05c0-1.4.68-3.31-.11-4.12-3.99-4.07-4.19-9.33-5.89-14.01-2.98-8.21-7.44-16.35-4.76-25.42-1.86-1.03-3.34-1.85-5.25-2.9v-15.37c-2.31-.92-4.33-1.73-5.9-2.35-.74-7.76-1.45-15.25-2.23-23.5-1.31-.95-3.13-2.28-4.76-3.48-.8-4.17-1.54-8-2.27-11.84.71,5.25-5.74,8.6-4.26,13.3-1.45.74-2.72,1-2.99,1.6-1.86,4.11-2.66,8.48-3.2,12.83-.4,3.19-.08,6.45-.08,9.72-1.78.9-3.3,1.66-4.81,2.43,0,3.74.26,7.49-.07,11.21-.31,3.51-1.24,6.97-1.88,10.4-5.76.06-9.82,1.51-12.67,6.23-2.7,4.48-7.19,8.11-10.44,12.37-2.94,3.85-6.69,6.97-10.25,10.31-1.54,1.45-2.32,3.69-4.09,4.72-2.62,1.53-5.82,2.32-7.65,3-1.75,2.39-2.66,4.15-4.1,5.48-2.75,2.54-5.8,4.83-8.48,7.03v38.41c-1.99-1.08-3.37-1.83-4.7-2.54.82-4.79-1.41-9.52,1.48-13.11-1.98-5.89-1.77-11.88-6.27-16.68,1.55-.85,3.04-1.67,4.76-2.61.93-3.34-.5-6.28-3.52-8.78-1.45-.24-2.91-.48-4.76-.79.56-1.71,1.03-3.15,1.6-4.88-.93-1.24-2.16-2.9-3.28-4.39h-3.53c-.79.69-1.54,1.35-2.58,2.26v8.08c-1.93,1.16-3.35,2.02-4.49,2.71,0,2.71-.84,5.4.22,7.26,1.21,2.13,1.94,3.44.02,5.44-.68.7-.3,2.2-.35,3.34-.28,6.33.07,12.56,3.12,18.49.39.76-.29,1.95-.55,3.32-1.3-.61-2.23-.77-2.53-1.23-1.19-1.89-3.32-4.02-3.01-5.79.56-3.23-3.68-3.93-3.45-6.58.27-3.04-2.79-3.28-4.78-4.41,3.14-2.51.82-5.7,1.65-8.29-.99-.88-1.75-1.54-2.49-2.19-2.15,0-4.29,0-6.43,0-1.32,1.16-2.65,2.31-4.3,3.76.6,1.69,1.25,3.54,1.97,5.61-1.47.82-2.96,1.64-4.48,2.48-.63,1.69-1.31,3.55-2.01,5.42,2.75,2.16,1.69,4.34-.35,6.97,2.21,1.18,2.82,2.97,1.2,5.23-2.45-2.14-5.48-3.93-7.07-6.43-1.4-2.2-2.51-4.18-4.9-5.87-2.53-1.8-4.17-4.56-6.51-7.26-.7-4.09-1.81-8.54-8.18-9.88-2.7,1.01-5.41,2.01-7.87,2.93v5.7c1.35,1.73,2.44,3.13,3.99,5.1h-7.02c-6.14-9.39-12.19-18.63-18.49-28.28,1.3-.81,2.35-1.47,3.78-2.37.69.37,1.74,1.41,2.78,1.4,6.47-.04,12.58,1.4,18.75,2.81,2,.46,4.61.7,6.34-.04,7.59-3.23,16.15-4.13,23.24-7.36v-4.96c-5.24-1.52-10.19-2.92-15.11-4.4-6.81-2.05-13.81-3.53-20.68-5.42-10.32-2.85-21.11-4.17-31.78-5.72-5.6-.81-11.5-.39-16.91-1.67-3.61-.86-7.3-.43-10.56-1.37-3.59-1.03-7.04-1.18-10.63-1.22-.79-.01-1.95.26-2.32-.1-2.68-2.52-6.06-.79-9.05-1.29-2.98-.5-5.95-1.11-8.96-1.38-6.45-.58-13.12-.3-19.32-1.67-4.16-.92-8.15-.87-12.23-1.23-1.68-.14-3.28-.95-4.54-1.34-2.77,1.72-5.25,3.27-8.43,5.25,9.79,1.69,18.88,3.26,27.71,4.78.79,1.89,1.42,3.41,2.01,4.83-9.01,2.43-17.33-2.32-26.97-.15,5.04,3.58,9.89,3.72,14.82,3.48.8.7,1.55,1.36,2.23,1.95v59.42h-20.65c0-8.5.04-16.67-.03-24.83-.01-1.53.26-2.98-.95-4.57-3.19-4.18-4.7-8.88-3.85-14.01.15-.92.47-2.18-.05-2.75-2.67-2.89-1.07-6.19-1.54-9.28-.5-3.31-1.48-6.62-1.49-9.93-.02-4.32-.32-8.52-2.35-12.78-1.45,0-3.02,0-4.58,0-8.91-.04-17.61,1.98-26.62,1.52-8.21-.42-16.56.46-23.69-4.29-.34-.23-1.1.1-1.57-.05-9.68-3.13-19.35-6.3-29.26-9.54-2.35,2.64-4.85,5.44-7.32,8.2-3.59-2.57-4.44-5.69-4.23-9.28.26-4.39-1.51-8.24-4.61-11.26-.69-5.25.91-10.35-1.75-15.15-3.24-5.84-3.6-12.1-3.24-18.45.1-1.85.02-3.71.02-4.93-1.58-1.63-2.77-2.86-3.76-3.88-1.54.69-2.86,1.29-3.79,1.7-.79,1.45-1.75,2.57-1.99,3.79-.32,1.59-.07,3.26-.08,4.89-.04,4.99.86,10.17-1.75,14.77-1.25,2.21-1.42,4.26-1.45,6.49-.04,3.24-.01,6.49-.01,9.45-1.55,1.9-3.02,3.45-4.14,5.17-.97,1.49-1.96,3.13-2.18,4.79-.42,3.1-.6,6.13-1.44,9.27-1.53,5.66-1.51,11.65-2.15,17.57-.67.56-1.41,1.18-2.18,1.82-1.07-1.88-2.09-3.69-3.62-6.38-2.97,5.73-5.52,10.66-8.34,16.11v11.93c-4.17,3.71-4.37,9.66-9.63,12.53v27.51c-.82.49-2.15,1.28-3.59,2.14v28.63h-1.23v-53.8c-5.6-6.63-10.92-12.93-16.19-19.17h-19.11c0-3.93-.18-7.64.04-11.32.31-5.19-1.25-10.51,1.48-15.57.48-.89.05-2.27-.25-3.36-.52-1.9-1.27-3.75-2.01-5.85-.37-.07-1.1-.21-1.83-.34-4.54-10.33-.11-10.05-18.24-20.04v-14.91c-1.75-1.85-2.93-3.09-3.87-4.07h-8.91c-1.7,2.23-3.52,4.61-5.03,6.61,2.9,5.15,2.06,9.6.29,12.86-3.86,2.48-6.81,4.17-9.48,6.14-5.23,3.84-6.73,9.71-9.76,14.69-1.69,2.78-1.5,6.51-1.71,9.84-.09,1.41,1.38,2.87,1.43,4.32.18,5.55.07,11.1.07,16.89h-21.7c-2.95,2.73-3.71,6.96-8.34,7.44-1.49,9.22-8.37,15.46-14.01,22.2h-5.8v47.3h-5.92c-.68-4.16-1.86-8.12-1.9-12.09-.2-18.92-.09-37.83-.09-56.75,0-1.4-.65-3.24.12-4.12,2.6-2.98.98-6.11,1.52-8.85-1.36-1.15-2.31-1.96-3.54-3v-11.53h-6.24v7.21c-3.03-2.41-5.48-4.37-7.9-6.3-6.02,3.96-11.61,7.63-18.1,11.89.56-8.92,1.06-17.05,1.54-24.73-2.51-1.77-4.88-3.43-6.94-4.87-2.6-.2-4.83-.37-7.38-.57.89-1.88,1.53-3.22,2.23-4.7-5.45-.25-5.5-.19-6.69,2.85-.4,1.02-.99,1.98-1.59,2.92-.17.26-.71.34-1.48.69-.74-1.44-1.45-2.82-2.21-4.31,1.69-1.96,4.76-3.07,3.43-6.47-.74-.51-1.99-1.36-3.62-2.48,1.63-1.12,2.88-1.98,3.63-2.49.89-3.81-1.02-7.33,1.29-10.03-.95-1.51-1.55-3.05-2.7-4.15-1.31-1.25-3.11-2.12-4.15-2.8-1.26-2.08-2.25-3.7-3.28-5.4-5.4,2.23-4.92,6.67-6.14,11.01-1.82-1.31-2.93-2.12-3.8-2.75,1.56-2.65,2.98-5.07,4.45-7.57-1.13-.89-2.11-1.66-2.84-2.23,1.46-3.09,2.85-6.01,4.01-8.47-2.84-2.14-5.58-4.19-8.55-6.42-.95,1.29-2.01,2.72-2.84,3.85h-5.83V3.38c-2.18-2.53-4.75-2.23-8.06-1.72-1.23,2.5-2.58,5.28-3.83,7.82h-3.73c-.25-1.51-.46-2.77-.8-4.75-3.47,2.32-6.22,4.16-9.55,6.39.98,2.95,2.08,6.22,3.06,9.16-1.12,1.6-2.16,3.08-2.97,4.43,2.45,1.66,4.09,3.23,5.71,4.77-3.2,3.01-3.71-.5-5.34-.55,0-1.48,0-2.63-.37-4.23-.81-.33-1.5-1.35-2.2-2.39-1.28.05-2.52.1-3.8.15v3.71c-4.87.29-5.8,4.21-7.95,6.86v11.23c1.19.43,2.24.81,3.48,1.25-1.61,2.27-2.91,4.1-4.3,6.07,1.7,1.71,2.99,3.02,4.51,4.55-1.04,1.59-1.88,2.89-3.19,4.89-.91-2.86-1.32-5.05-2.34-7-.56-1.07-2.13-1.75-3.07-2.47-1.43.93-2.41,1.57-2.69,1.75.5,2.08.84,3.52,1.26,5.28h-6.65c-3.19,1.98-5.67,3.53-8.07,5.02,3.36,11.36.8,22.67,1.78,33.52-1.92,1.03-3.42,1.83-4.36,2.34.58,2.52,1.05,4.61,1.61,7.06.76.54,1.78,1.28,2.29,1.64v42.74c-1.27.42-2.14.71-2.58.86.59,2.75,1.09,5.07,1.57,7.3-4.09,1.53-6.93-.08-10.1-1.56v-4.63c-1.65-.89-3.12-1.68-4.51-2.43v-20.96c1.02-.89,1.96-1.71,2.97-2.6v-4.6c-4.24-.93-6.56-3.87-10.02-5.72.93-1.19,1.47-1.88,2.4-3.06h-7.37c-1.13-.99-1.7-1.49-2.28-1.99,2.91-3.37,5.95-6.68,6.96-10.66,2.85-.11,3.32,2.52,5.65,2.63-.6-2.59-2.3-5.32-1.37-6.75,3.98-6.17-1.5-11.89-.39-17.79-2.3-4.02-3.08-8.36-3.17-12.63-1.54-.63-2.83-1.16-4.08-1.67-.51.35-1.04.7-1.92,1.3-.96-3.09-1.81-5.81-2.65-8.52-4.83.53-5.05.72-5.67,3.95-.26,1.4-.73,2.77-1.11,4.2.37.29.76.6,1.16.93-5.24,2.02-8.56,5.65-10.88,9.56.68,1.8,1.3,3.44,1.92,5.07,1.8.07,3.6.14,5.82.22-.59,4.96-1.37,9.61-1.64,14.28-.28,4.86-.06,9.73-.06,14.48-5.47,1.97-6.79,6.24-8.46,10.01-2.03.77-3.84,1.46-5.82,2.21v4.57c1.02.89,1.96,1.71,2.83,2.47v21.6c-1.09.86-2.08,1.63-3.31,2.59v10.13c-3.9.44-6.5,4.06-10.75,2.68v-38.95c2.04-3.03,3.54-5.27,5.17-7.7-7.59-5.98-14.82-11.69-22.35-17.63h-37.66c.99-7.5-2.19-15.07,3.42-22.43h-7.86c-.27-1.15-.42-1.78-.6-2.51-3.21-.13-6.29-.26-9.59-.39v-11.66c-2.26,1.34-3.86,2.29-6.3,3.73-10.7-1.26-18-8.93-27.17-14.42h-12.18c-8.55-8.49-14.53-6.03-20.67.16-4.28,0-8.55,0-12.09,0-7.98,4.86-15.46,9.43-22.69,13.83h-6.52c-2.1-1.24-3.54-2.09-5.82-3.44v11.9h-7.27c-1.23,1.07-2.17,1.9-3.13,2.74-2.46.17-4.93.34-7.85.54,1.44,1.26,2.39,2.09,3.61,3.15,0,3.22.07,6.7-.02,10.17-.09,3.39.41,6.83-.31,10.18h-40.04c-6.1,5.11-12.71,10.65-19.86,16.65,6.05,5.32,5.94,11.83,5.71,18.42-.18,5.13-.04,10.27-.04,15.41v18.01h-6.26v-30.22c-1.63-.88-3.12-1.69-5.01-2.71v-21.89c-4.14,1.22-7.03-.63-10.14-2.18-2.56-1.27-5.63-1.8-8.09-3.18-2.63-1.48-5.8-2.64-8.34-2.53-12.18.55-24.13-2.03-36.25-1.57-4.92.18-9.63-.37-15.57-2.67h19.05c0-4.88,1-9.5-.27-13.59-1.35-4.34-1.57-8.56-1.2-12.79.39-4.43-1.85-8.36-2-12.62-2.99-.39-5.91-.77-9.2-1.19-.8.36-2.09.95-3.68,1.67v23.54c-4.08-8.22-2.53-16.19-2.95-23.68-2.44-3.31-5.88-1.85-8.8-2.12-.84.73-1.59,1.39-2.37,2.07,0,2.31.12,4.65-.04,6.98-.14,2.04.74,4.25-1.36,7.45v-12.15c-1.18-2.01-1.87-3.17-2.58-4.39-3.7,0-7.44.1-11.17-.03-3.33-.12-5.9,1.13-8.24,2.95-1.39,1.08-2.74,2.2-4.21,3.38v3.58c-1.12-.67-1.9-1.15-3.29-1.98-3.12,3.36-6.15,6.62-9.6,10.34v25c-1.65.27-2.96.34-4.15.7-2.06.63-4.04,1.44-6.06,2.18-1.64-2.28-4.5-.59-6.5-1.51-9.82-4.51-20.43-4.13-31.01-3.95-1,.02-2.01.23-2.98.46-7.2,1.7-12.76,5.93-18.75,9.47-1.13.66-1.51,2.23-2.39,3.29-4.27,5.17-5.34,11.01-4.79,17.18.27,3.09.64,6.18,1.04,9.99-.1.14-.76,1.05-.95,1.31,2.25,3.95,4.68,7.11,5.82,10.6.89,2.75.18,5.89.18,8.57-3.45,2.05-6.78,4.03-10.89,6.48H0l6.79,2317.32h1441.4l7.64-2317.38c-4.34,0-10.98-.28-14.61-.28ZM28.96,155.35v-29.15h2.65v29.15h-2.65ZM40.19,155.27v-32.33c1.68,4.58,1.98,20.02,0,32.33ZM50.21,122.47c.76,1.41,1.19,2.2,2.35,4.35v26.81c-.49.15-1.18.36-1.89.57-1.45-4.53-1.71-20.06-.46-31.73ZM58.89,127.82c1.18-.15,2.09-.26,3.23-.4v34.95h-2.41c-1.42-13.85-.94-29.26,1.03-32.79-.84-.79-1.19-1.12-1.85-1.75ZM149.54,168.33c-5.63,1.5-64.83,1.88-80.47,0h80.47ZM69.07,162.22v-31.19c1.66,5.14,1.91,20.58,0,31.19ZM157.07,160.8c6.87-1.03,13.44-3.84,21.23-1.92-5.9,4.49-11.49,8.75-17.45,13.29h-4.97c.05-.42-.05-.86.16-1.05,2.61-2.33,5.29-4.6,7.87-6.96.66-.6,1.01-1.45,1.89-2.77-3.37-.23-6.05-.41-8.73-.59ZM317.27,101.74c.94-.82,1.51-1.32,2.36-2.06h8.59c.85.74,1.42,1.24,1.91,1.67v12.98c-.78.68-1.35,1.18-2.05,1.79h-8.74c-4.03-4.61-.52-9.9-2.07-14.39ZM328.46,133.62c-.02.2-.03.4-.05.61h-33.05c6.99-1.82,12.52-3.26,18.35-4.78,4.55,1.29,9.65,2.73,14.75,4.17ZM317.74,140.56c.85-.74,1.41-1.23,2-1.75h9.22c.45,1.41,1.28,2.83,1.31,4.27.14,6.72.06,13.44.06,20.49h-12.6v-23.01ZM348.5,140.38c0-.5,1.05-.98,1.75-1.59h11.88v24.66c-.67.59-1.23,1.08-1.8,1.57-3.67-2.25-7.95-.42-11.91-1.37,0-8.07-.03-15.67.07-23.26ZM381.93,163.55v-24.76h8.71c.68.59,1.24,1.09,2.04,1.78v22.98h-10.75ZM563.11,126.69c.18,1.39,1.34,2.67,2,3.87-1.24,1.04-2,1.68-2.83,2.38h-5.46v-10.94h7.13c-.32,1.57-1.04,3.18-.84,4.69ZM564.51,139.57c-.75,4.02-1.47,7.88-2.29,12.26-2.05-.72-3.85-1.35-5.54-1.94v-12.36c3.12-.34,6.19-1.12,7.83,2.04ZM569.68,132.82c-.69-3.29.03-6.9-.39-10.73h6.42v10.73h-6.02ZM575.7,137.51v13.54h-5.89v-13.54h5.89ZM606.72,132.83v-10.74h4.28v10.74h-4.28ZM610.86,137.4v13.76h-4.27v-13.76h4.27ZM592.06,116.12c2.39-2.51,3.84-4.04,5.21-5.48h10.06c1.37,1.44,2.83,2.97,5.2,5.46-7.29.21-13.17.19-20.48.02ZM599.5,122.09v10.75h-7.49v-10.75h7.49ZM599.61,137.4v13.64c-2.7.31-5.29.86-7.46-1.71v-11.93h7.46ZM630.64,132.93v-10.87c1.69-.07,3.67-.15,5.91-.25v11.12h-5.91ZM636.5,137.41v12.39c-1.37.5-3.32,1.2-5.84,2.12v-14.51h5.84ZM647.9,137.51v13.3c-2.56,1.1-4.55.61-6.16-1.86v-11.44h6.16ZM641.89,133.11v-11.14h5.87v10.84c-1.65.08-3.6.18-5.87.3ZM678.8,158.34v-16.74h5.87v16.43c-1.65.09-3.61.19-5.87.31ZM811.96,172.35v-19.08c2.04-2.84,4.81-1.68,7.51-2.1v20.89c-2.23.09-4.73.18-7.51.29ZM828.31,170.69v-17.72c.25-.03.51-.05.76-.08v17.7c-.38.05-.57.08-.76.1ZM1408.87,98.16h2.65v8.14h-2.65v-8.14ZM1394.41,100.95h2.68v6.77h-2.68v-6.77ZM1390.95,146.59c.02-3.53,2.92-5.58,5.61-7.92h8.34c1.61,1.9,3.41,4.03,5.12,6.04v25.64c-.74.64-1.3,1.14-2.05,1.79h-17.03c0-8.49-.03-17.02.01-25.55ZM1386.39,100.95h2.67v8.16h-2.67v-8.16ZM1368.75,115.97c2.84,1.82,3.72,3.46,2.35,5.77h-2.35v-5.77ZM1330.24,85.63c.28.02.56.05.84.07.34.81.67,1.61,1.06,2.55.68-.52,1.23-.93,1.79-1.35,2.79,2.26-.63,3.95-.79,6.03.46.47.96.99,1.48,1.52-1.95.53-.26,4.53-4.38,3.3v-12.12ZM1323.47,65.3c-2.44.43-4.82.85-7.73,1.36-.42-.14-1.2-.41-2.29-.77,5.96-3.66,6.18-3.5,10.01-.59ZM1321.96,85.45c-.11-3.19-.02-6.39-.02-9.59.44,0,.89-.01,1.33-.02v19.13c-1.81-3.06-1.2-6.33-1.31-9.51ZM1323.27,138.8v13.76h-4.27v-13.76h4.27ZM1301.2,42.2h9.36v2.19c-3.54,1.13-7.51-.69-12.16,2.59,1.49-2.54,2.12-3.61,2.8-4.78ZM1309.44,66.38c-4.03,1.66-8.43,2.6-13.12,3.6,2.62-2.51,6.95-3.82,13.12-3.6ZM1298.13,84.35h6.91c-1.83,2.47-3.26,4.39-4.86,6.55h-3.33c-.23-.51-.64-.96-.54-1.29.57-1.84,1.25-3.65,1.83-5.26ZM1285.3,94.08c1.9,3.98,1.06,8.05,0,12.12v-12.12ZM1327.34,165.11c1.09.95,1.85,1.61,2.61,2.28v5.66c-1.28,1.07-2.62,2.2-3.47,2.91-13.35,3.07-26.38,4.12-39.92,3.06,1.99-1.54,3.7-2.87,5.08-3.95-2.06-7.43-1.3-7.66-12.26-10.58,16.82-2.38,32.5,2.14,47.94.62ZM1277.01,94.07h1.33v13.34c-2.06-3.04-1.14-5.23-1.3-7.26-.16-2.02-.04-4.06-.04-6.09ZM1270.55,116.95c.06,3.42.05,6.83.05,10.25-.44.02-.88.04-1.32.06v-10.87c.59.25,1.27.41,1.28.57ZM1268.99,95.45c.45,0,.89,0,1.33,0v11.76c-2.05-2.58-1.11-4.58-1.29-6.36-.18-1.79-.04-3.6-.04-5.4ZM1219.53,135.73c5.98.81,3.94,5.69,6.63,7.95-1.45,2.22-2.68,4.1-4.56,7-.45-1.43-.72-2.3-.99-3.16-.36.24-.72.48-1.08.72v-12.51ZM1163.65,138.88c5.75,2.29,11.2,4.89,14.36,10.58-8.1-2.71-10.9-2.95-16.3-1.63.64-2.95,1.29-5.95,1.94-8.95ZM1123.05,90.66c1.65-1.22,3.24-2.39,4.61-3.39,8.4,1.42,17.04,2.87,25.67,4.33.05.44.1.89.16,1.48-3.68,1.64-7.4,3.3-10.96,4.88-6.36-1.01-12.58-2-19.48-3.09v-4.2ZM1122.95,137.96c.08-8.57.03-17.14.03-26.85,6.73,10.21,12.76,19.36,18.52,28.11-1.63,2.74-3.33,5.62-5.51,9.3-2.9-.45-6.8-1.06-10.86-1.7-2.24-2.56-2.2-5.67-2.17-8.85ZM1102.03,131.63c.43-4.56.09-9.18.09-15.16,1.68,2.18,2.68,3.1,3.17,4.19,2.23,5.01,4.75,9.97,6.3,15.15.9,3,.16,6.38.16,9.72h-8.08c.94-4.77-2.1-9.05-1.64-13.9ZM1106.11,101.29c2.85,1.31,4.07,1.87,5.39,2.48v9.13c-1.86-4-3.23-6.96-5.39-11.61ZM1049.99,76.76c1.36.56,2.66,1.54,3.99,1.58,18.53.51,36.53,4.91,55.63,5.88.79.73,1.5,1.4,2.23,2.08-.85,3.38-4.31,4.26-6.96,5.63-19.13-3.16-38.41-5.71-57.13-9.3.87-2.29,1.5-3.92,2.24-5.87ZM1094.1,120.31c0,4.2-.25,8.41.07,12.59.3,4.02-1.48,8.27,1.29,12.24.04-.04-.09.16-.28.28-.19.12-.45.25-.68.25-15.46.01-30.91.01-46.65.01v-56.36c3.84.36,7.7.07,10.9,1.2,3.45,1.22,7-.46,10.53,1.58,2.68,1.55,7.17-.57,10.34,1.72,5.3-1.06,10.06,2.32,15.78,1.27-.44,4.1-1.05,8-1.24,11.92-.21,4.42-.05,8.86-.05,13.29ZM1050.08,154.09c12.17,0,24.68-.09,37.18.06,2.99.04,5.94,1.01,8.95,1.3,3.03.29,6.25-.54,8.97,1.41.32.23,1.04,0,1.57.04,6.72.46,13.59.32,20.09,1.61,4.39.87,8.64,1.03,13.53,1.24.1,1.19.2,2.45.33,3.97-6.3.45-11.98.12-17.68-1.79-8.67-2.9-20.17-2.66-29.59-1.12-5.2.85-10.29,1.98-15.43,2.89-5.13.9-10.63.32-15.96.13-1.93-.07-3.8-1.07-5.75-1.28-2.09-.23-4.24-.05-6.31-.05-.63-.55-1.19-1.04-2.03-1.77-.61-2.23-1.19-4.64,2.14-6.63ZM1011.46,156.93c6.63.32,13.02-2.97,19.91-.96v3.48h-18.59c-.68-.59-1.24-1.08-1.85-1.61.17-.3.37-.91.53-.9ZM991.53,110.89h5.79c-.1-.09.24.07.24.24.02,11.35.02,22.7.02,34.3h-6.05v-34.54ZM975.49,110.88h5.95v31.28c-2.2-3.76-3.96-6.76-5.95-10.18v-21.11ZM909.58,132.36v-38.39h2.99v39.79c2.02.86,3.79,1.61,5.43,2.31.48-.34.86-.48.86-.62.03-11.84.02-23.67.02-34.56,1.36-1.51,2-2.22,2.64-2.93.92.8,1.68,1.46,2.7,2.36v36.81h4.32v-31.15c1.4-1.22,1.97-1.72,2.72-2.38.8.83,2.17,1.61,2.26,2.48.29,2.78.11,5.59.11,8.39v23.16c1.93,1.66,1.53,5.38,6.12,5.23v-28.01c3.32-2.89,6.11-5.33,9.41-8.21h21.13c-3.24,7.77-6.48,15.53-9.82,23.52h-15.61c0,4.35.13,8.49-.07,12.61-.07,1.45-.93,2.86-1.46,4.35h-48v24.99c-3.21-1.12-6.03-2.1-9.84-3.43v-4.51c0-7.93.06-15.87-.04-23.8-.02-1.86-.59-3.71-.94-5.81h22.54c.84-.74,1.41-1.23,2.53-2.21ZM895.42,117.51v-19.15c.25-.18.5-.37.75-.55.27.86.54,1.71.81,2.57.37-.24.73-.48,1.1-.72v17.84h-2.65ZM892.2,30.98c1.85,3.07,1.07,6.23,0,9.32v-9.32ZM906.13,69.45v18.22c-1.18.53-2.5,1.13-3.87,1.74h-11.96c5.2-6.56,10.18-12.83,15.82-19.95ZM890.04,8.55v10.87c-.59-.25-1.27-.41-1.28-.57-.06-3.42-.05-6.83-.05-10.25.44-.02.88-.04,1.32-.06ZM888.46,117.52h-2.68v-15.49c1.01-.72,1.93-1.38,2.68-1.92v17.41ZM884.18,32.29h2.66v8.15h-2.66v-8.15ZM880.98,50.56h7.41v24.38c-3.34-4.22-6.1-7.71-9.67-12.22.69-3.69,1.46-7.84,2.26-12.16ZM867.86,156.12c.99-.73,2.11-1.56,3.94-2.91,1.64,4.88.33,9.05,1.02,13.12-.5.24-.99.47-1.49.71-1.18-.77-2.36-1.55-3.47-2.27v-8.65ZM863.31,92.55h2.67v13.76h-2.67v-13.76ZM860.1,113.67c1.86,3.53.97,7.16,0,10.72v-10.72ZM828,119.3c1.89,4.04,1.19,8.23,1.32,12.36.12,4.13.03,8.26.03,12.38h-1.34v-24.74ZM811.95,125.31q3.44-2.5,7.54-.23v18.62c-2.15,2.52-4.73,2.1-7.54,1.74v-20.13ZM795.91,75.86c.25-.15.51-.3.76-.45.37.82.74,1.63,1.11,2.45.27-.18.54-.37.81-.55v14.97h-2.67v-16.43ZM794.29,126.56c1.14-1,2.45-2.15,4.02-3.52,1.68.7,3.45,1.44,5.29,2.21v18.53c-.98.54-2.14,1.59-3.49,1.82-2.02.34-4.29.42-5.82-2.05v-16.98ZM796.21,151.46c2.56-.27,5.17-.76,7.24,1.83v18.75c-2.22.1-4.71.22-6.93.32-.84-.74-1.4-1.23-2.53-2.21.84-5.9-1.76-12.49,2.22-18.69ZM789.36,75.37c.65.36,1.04.47,1.04.58.03,5.24.03,10.49.03,16.13-.67.59-1.23,1.08-1.82,1.59-.32-.23-.93-.45-.94-.69-.06-4.14.04-8.29-.1-12.43-.03-1-.81-1.97-1.33-3.16.9-.59,2.09-1.36,3.12-2.03ZM784.12,117.77v3.35c-1.71,1.86-3.59,3.91-5.69,6.19-.97-2.89-.11-5.96-.57-9.55h6.27ZM775.29,74.4c1.98,2.52.84,5.6,2.43,8.37,1.37,2.4.29,5.88.29,8.94-1.07.93-1.63,1.42-2.22,1.94-.33-.22-.94-.44-.95-.67-.05-6.18-.04-12.36.45-18.59ZM778.39,110.56c-1.07,1.07-2.15,2.16-3.23,3.24-.6,0-1.2-.02-1.81-.03.46-3.62-1.18-5.82-5.23-6.66.34-.76.67-1.49,1.2-2.65,3.19,2.14,5.91,3.98,9.07,6.1ZM767.33,75.55c1.03.11,1.53.17,2.34.25v16.19c-.65.57-1.22,1.06-1.78,1.55-.19.02-.37.05-.56.07v-18.07ZM755.8,75.73h2.69v17.97h-2.69v-17.97ZM729.3,103.55c3.54,4.68,7.02,9.27,10.56,13.94h8.82c2.77-2.91,5.99-6.29,9.42-9.89,3.78,3.89,7.78,7.68,11.32,11.75,3.27,3.76,2.55,9.41,1,13.67v-8.21c-3.67-4.91-6.81-9.44-11.41-13.21-5.48,3.22-8.01,7.93-11.37,12.33v19.52c-1.46,1.06-2.99,2.18-4.66,3.4v-21.17c-5.84-6.36-8.84-14.09-16.41-19.12.76-1.28,1.53-2.04,2.73-3.01ZM719.85,119.37c-1.12,3.42-1.91,6.97-6.06,10.07.93-4.44,2.72-7.58,6.06-10.07ZM712.22,205.24v5.58h0c0-1.86,0-3.72,0-5.58ZM678.79,103.75h5.88v8.05c-1.66.08-3.62.17-5.88.28v-8.34ZM678.59,116.25h5.51c.19.16.55.31.55.47.03,3.88.02,7.77.02,11.89h-6.07c-.15-3.96-.12-8.16-.02-12.37ZM672.33,82.84c1.18-.08,2.61-.17,3.86-.26.81,1.41,1.45,2.54,2.03,3.54-.64,1.1-1.31,2.25-1.94,3.34h-3.95v-6.63ZM666.11,103.88h5.68c.71,2.55.07,5.36.4,8.16h-6.08v-8.16ZM665.94,116.46c1.69-.07,3.66-.16,5.91-.26v12.53h-5.91v-12.27ZM665.81,144.52h5.8c-.11-.11.22.06.22.24.03,4.35.02,8.7.02,13.29h-6.04v-13.53ZM657.66,106.6c1.96,5.66,2.31,32.03,0,44.47v-44.47ZM648.07,77.52c-.66,2.63,1.79,6.07-3.29,8.04-3.94-1.39-3.15-4.06-3.14-6.45,1.57-1.64,3.26-2.97,6.43-1.59ZM641.53,89.62h6.08v8.16h-5.68c-.71-2.55-.07-5.36-.4-8.16ZM635.42,69.11c3.47-1.82,6.08.79,9.08,1.16.04.33.06.49.08.65-3.53.21-7.05.41-12.04.7,1.77-1.54,2.32-2.03,2.88-2.51ZM630.76,77.23h5.92v6.25c-1.89.75-3.65,1.45-5.92,2.35v-8.6ZM630.34,95.94c.21-1.83.04-3.7.04-6.19h6.14v8.01c-.88.07-2.08.19-3.29.27-1.72.12-3.14.07-2.89-2.09ZM634.14,110.76h10.03c1.21,1.15,2.74,2.6,4.17,3.96-.58.79-.84,1.47-1.12,1.48-5.54.06-11.08.05-16.62.05-.22-.48-.44-.97-.66-1.45,1.37-1.32,2.74-2.63,4.2-4.03ZM613.04,50.05h-6.45v-10.76h4.04c1.8,3.38-1.34,7.41,2.41,10.76ZM610.86,54.71v5.37h-4.27v-5.37h4.27ZM597.09,20.95h10.54c.13,2.42.27,4.88.42,7.7-1.36,1.13-2.86,2.37-4.77,3.96-2.17-1.7-4.27-3.34-6.19-4.85v-6.8ZM595.21,39.41h4.53c.4,3.3.04,6.9.2,10.73h-4.73v-10.73ZM599.55,54.9c1.14,2.81-.19,4.47-3.78,5.67-.72-2.26-1.23-3.86-1.8-5.67h5.58ZM598.54,69.08c8.33-.58,9.03-.15,14.16,8.65-1.12.98-1.69,1.47-2.25,1.96-3.29-2.46-7.16-3.06-11.32-2.62-1.84,1.49-3.71,3.01-5.73,4.65-2.55-5.65-2.34-6.11,5.14-12.64ZM576.14,114.72c-.58.79-.84,1.48-1.11,1.48-5.54.06-11.08.05-16.62.05l-.66-1.45c1.37-1.32,2.74-2.64,4.19-4.04h10.04c1.21,1.15,2.74,2.6,4.17,3.95ZM556.95,97.99v-8.15h7.52v5.98c-1.79,2.94-4.61,2.14-7.52,2.17ZM569.55,97.8v-7.94h5.88v7.94h-5.88ZM575.44,85.18h-5.89v-6.8c1.67-.58,3.48-1.2,5.89-2.03v8.83ZM559.83,70.75c.62-.72,1.46-1.3,2.26-1.98,4.2-.38,8.44-.57,12.1,1.97-4.52,2.69-9.42,2.38-14.4,1.76,0-.86-.21-1.46.04-1.75ZM556.58,79.11q3.86-2.63,7.88-.16v4.52q-4.01,2.47-7.88-.16v-4.2ZM446,129.09h15.74c.41,3.31.05,6.91.21,10.74h-15.95v-10.74ZM448.02,151.5h11.73c.88.76,1.44,1.26,2,1.75v16.04h-15.7c-.13-5.3-.19-10.6-.19-15.9.78-.68,1.34-1.17,2.16-1.88ZM428.6,129.33q3.44-.17,5.88,1.49v9.03h-5.88v-10.52ZM428.45,153.68c.79-.86,1.6-1.72,2.68-2.89,1.19.82,2.16,1.49,3.28,2.26v15.38c-1.94.46-3.75.88-5.96,1.4v-16.15ZM415.12,163.54h-9.12v-24.74h9.12v24.74ZM406,101.19h9.12v15.06h-9.12v-15.06ZM414.93,134.15h-33.57c4.88-2.4,10.15-2.51,14.16-5.2.68-.45,2.46.15,3.64.49,4.87,1.4,9.7,2.89,15.77,4.71ZM381.91,116.1v-16.31h9.01c.41.36.97.85,1.77,1.54v13.02c-.89.78-1.45,1.27-2,1.75h-8.77ZM402.7,76.76h-34c8.81-5.49,25.13-5.5,34,0ZM351.2,67.14c.33-.15,1.63-.73,3.25-1.44,1.93.97,4.06,2.05,6.21,3.13v6.38c-1.13.64-2.89,1.63-5.54,3.12-.69-.2-2.78-.82-4.87-1.44-2-2.89-3.63-5.8.94-9.75ZM348.23,101.32c.84-.74,1.4-1.23,2.02-1.76h9.92c.71.62,1.27,1.11,2.05,1.79v14.56h-12.22c-.4-.35-.96-.84-1.76-1.54v-13.04ZM372.47,134.47h-34.39c10.1-7.89,24.38-6.67,34.39,0ZM309.27,75.68c4.19-1.46,8.26-3.26,13.05-2.92,3.45.24,6.93.05,8.78.05,4.4,1.49,7.4,2.5,11.45,3.87-2.74.15-4.45.32-6.17.33-7.47.03-14.94-.04-22.41.05-1.89.02-3.77.53-6.35.93.6-.88.92-2.04,1.64-2.3ZM295.28,100.94h10.71v13.48c-.43.34-1.22.95-2.17,1.69h-8.54v-15.17ZM295.27,138.79h9.57c.46,1.38,1.32,2.8,1.36,4.24.15,6.73.07,13.46.07,20.53h-10.99v-24.77ZM276.06,130.74c1.22-1.43,2.96-2.61,5.88-1.53v10.74h-5.88v-9.21ZM275.91,152.69c1.63-.58,3.44-1.23,6.16-2.2v18.45c-2.57,1.45-4.39.38-6.16-1.44v-14.8ZM258.39,128.98h5.9v10.87c-1.68.08-3.65.16-5.9.27v-11.13ZM258.39,151.41h5.91v17.87c-1.68.08-3.66.16-5.91.27v-18.13ZM245.03,169.58c-1.31-.13-1.81-.18-2.48-.25-.46-3.18-.93-6.41-1.47-10.21.42-2.07.98-4.84,1.56-7.72h2.4v18.18ZM242.56,129h2.45v10.92h-4.46c3-3.39.59-7.29,2.01-10.92ZM162.35,133.13c4.77.44,9.62,1.55,14.29,1.15,4.54-.39,8.91-2.31,13.5-3.6,1.42,1.74,4,1.14,6.16.91,5.16-.53,9.28,1.6,13.52,3.49.25.11.12.85.27,2.13-5.38-3.01-11.41-1.95-16.82-3.87-1.61-.57-3.95.11-5.85.57-3.31.81-6.53,1.9-9.78,2.89-.23.07-.37.43-.58.44-5.49.4-10.36-1.3-15.28-2.82.19-.43.38-.86.56-1.3ZM151.24,142.93h20v7.93c-.47.14-1.18.34-2.47.71-.27-1.43-.5-2.66-.57-3-3.67-4.94-9.7-1.33-15.15-4.89,1.1,3.14,1.74,4.98,2.54,7.26-4.18.78-8.33.03-12.71.48v-11.1c2.18-.09,4.68-.19,7.09-.28.47,1.08.82,1.88,1.26,2.89ZM142.86,120.68c1.15-.08,2.59-.18,4.28-.29v8.34h-4.28v-8.05ZM123.63,139.94v-6.75h4.25v6.75h-4.25ZM127.75,147.31v3.39c-1.62.8-2.67,1.32-4.02,1.99v-5.38h4.02ZM127.64,124.85c-3.72-.74-4.72-2.5-4.29-5.08q4.78-.83,4.29,5.08ZM109.06,102.07c2.79.55,5.31,1.26,7.89,1.51,2.55.25,5.15.06,7.85.06v2.36c-5.09-1.89-10.48-.38-15.74-1.2v-2.73ZM112.23,141.35h-3.06v-6.43c.46-.38,1.23-1,2.36-1.93,1.18,2.86.3,5.58.71,8.35ZM94.76,116.92c1.6-.93,3.46-2.02,4.45-2.59,6.27-2.74,8.11,3.29,12.54,2.09v6.81c-.27.01-.53.03-.8.04-.22-1.24-.44-2.49-.65-3.67-2.69-1.14-5.33-2.25-7.95-3.36-2.83.96-3.75,2.87-2.9,5.48h-4.68v-4.8ZM94.6,134.71h7.61c.1,1.91.22,4.09.35,6.52h-7.96v-6.52ZM111.95,146.59v5.89h-17.22c-.09-1.02-.2-2.27-.33-3.68,5.81-1.08,11.73,1.03,17.54-2.21ZM83.24,118.01c.86-.13,1.76-.26,2.97-.44v8c-.86.75-1.41,1.23-2,1.75-.32-.24-.92-.47-.93-.71-.07-2.76-.04-5.51-.04-8.6ZM83.99,134.5c3.44,3.8,3.41,4.75-.24,8.21-.48-2.13-.95-4.23-1.51-6.68.62-.54,1.18-1.03,1.75-1.53ZM156.19,161.33c-6.01,1.46-66.95,1.79-80.65,0h80.65ZM29.33,121.72c3.91-1.25,7.35-3.59,11.13-5.2,3.58-1.53,7.65-1.84,11.45-2.78,5.62-1.39,11.71-1.34,16.67-1.81,3.04,1.31,5.25,2.27,7.9,3.42v13.2c-.24.05-.47.09-.71.14-.19-1.1-.47-2.19-.55-3.3-.1-1.39-.02-2.79-.02-3.83-1.81-2.26-3.41-4.26-5.21-6.5-17.1-1.63-32.18,2.8-45.99,11.81.88-2.44,2.24-4.16,5.32-5.15Z"/>
  </g>
</svg>