<?xml version="1.0" encoding="UTF-8"?>
<svg id="Layer_1" data-name="Layer 1" xmlns="http://www.w3.org/2000/svg" viewBox="0 0 186.92 33.19">
  <defs>
    <style>
      .cls-1 {
        fill: #f3f3f4;
        stroke-width: 0px;
      }
    </style>
  </defs>
  <g>
    <path class="cls-1" d="M49.49,27.45v5.38h-4.21v-16.22h6.71c1.41,0,2.87.27,4.11,1.46,1.26,1.22,1.51,2.58,1.51,3.94,0,1.29-.17,2.8-1.44,4.04-1.26,1.24-2.77,1.41-4.04,1.41h-2.65ZM49.49,24.05h1.41c.44,0,1.26-.05,1.78-.51.51-.44.54-1.09.54-1.48,0-.44-.05-1.02-.49-1.46-.49-.51-1.26-.58-1.8-.58h-1.44v4.04Z"/>
    <path class="cls-1" d="M69.75,30.1h-5.89l-1.09,2.72h-4.45l6.23-16.22h4.6l6.1,16.22h-4.5l-1-2.72ZM68.64,26.89l-1.82-5.25-1.78,5.25h3.6Z"/>
    <path class="cls-1" d="M88.78,32.39c-1.68.61-2.6.8-3.65.8-2.82,0-4.94-1.12-6.28-2.43-1.58-1.58-2.46-3.79-2.46-5.91,0-2.31,1-4.5,2.46-5.98,1.43-1.46,3.6-2.53,6.13-2.53.78,0,2.04.12,3.79.83v5.04c-1.36-1.68-2.97-1.78-3.67-1.78-1.22,0-2.14.36-2.92,1.07-1,.92-1.41,2.19-1.41,3.33s.46,2.36,1.31,3.16c.71.66,1.82,1.12,3.02,1.12.63,0,2.19-.07,3.67-1.7v4.99Z"/>
    <path class="cls-1" d="M95.67,23.29l5.16-6.69h5.21l-6.45,7.69,7.03,8.54h-5.45l-5.5-7.03v7.03h-4.21v-16.22h4.21v6.69Z"/>
    <path class="cls-1" d="M112.7,22.66h6.08v-6.06h4.23v16.22h-4.23v-6.57h-6.08v6.57h-4.21v-16.22h4.21v6.06Z"/>
    <path class="cls-1" d="M141.04,30.78c-1.65,1.58-3.99,2.41-6.4,2.41s-4.74-.83-6.4-2.41c-1.73-1.65-2.55-3.92-2.55-6.06s.83-4.45,2.55-6.08c1.65-1.58,3.99-2.41,6.4-2.41s4.74.83,6.4,2.41c1.73,1.63,2.55,3.92,2.55,6.08s-.83,4.4-2.55,6.06ZM131.36,21.61c-.88.85-1.29,2.04-1.29,3.19,0,1.43.68,2.43,1.29,3.02.78.75,1.87,1.29,3.28,1.29s2.5-.51,3.26-1.26,1.31-1.87,1.31-3.11-.56-2.38-1.31-3.11c-.9-.85-2.14-1.29-3.26-1.29s-2.41.41-3.28,1.29Z"/>
    <path class="cls-1" d="M150.48,16.6v9.61c0,.68.02,1.73.83,2.51.49.46,1.26.78,1.99.78s1.48-.29,1.95-.71c.97-.85.95-2.04.95-2.94v-9.24h4.21v9.32c0,1.7-.07,3.48-1.82,5.25-1.36,1.39-3.06,2.02-5.35,2.02-2.55,0-4.38-.88-5.38-1.95-1.41-1.53-1.58-3.6-1.58-5.33v-9.32h4.21Z"/>
    <path class="cls-1" d="M164.88,27.96c.9.85,2.26,1.65,3.72,1.65.85,0,1.36-.27,1.63-.56.24-.24.41-.61.41-1.02,0-.32-.12-.68-.46-.97-.41-.36-1.05-.54-2.09-.85l-1.09-.34c-.68-.22-1.68-.58-2.33-1.31-.83-.9-.92-2.04-.92-2.87,0-1.99.78-3.21,1.48-3.92.83-.83,2.19-1.53,4.16-1.53,1.61,0,3.48.51,5.01,1.31l-1.68,3.28c-1.26-1-2.21-1.09-2.77-1.09-.41,0-.97.1-1.39.49-.24.24-.41.51-.41.88,0,.29.05.51.22.73.12.15.41.44,1.41.73l1.29.39c1.02.32,2.09.68,2.94,1.61.83.88,1.05,1.78,1.05,2.89,0,1.48-.36,2.92-1.53,4.09-1.39,1.39-3.06,1.65-4.79,1.65-1.02,0-2-.1-3.19-.54-.27-.1-1.29-.49-2.46-1.29l1.8-3.41Z"/>
    <path class="cls-1" d="M186.92,20.18h-5.01v2.7h4.74v3.58h-4.74v2.8h5.01v3.58h-9.22v-16.22h9.22v3.58Z"/>
  </g>
  <g>
    <rect class="cls-1" width="9.71" height="32.47" rx="2.07" ry="2.07"/>
    <rect class="cls-1" x="21.05" width="9.71" height="32.47" rx="2.07" ry="2.07"/>
    <rect class="cls-1" x="10.52" width="9.71" height="20.29" rx="2.07" ry="2.07"/>
    <rect class="cls-1" x="31.57" y="12.18" width="9.71" height="20.29" rx="2.07" ry="2.07"/>
  </g>
</svg>