<?xml version="1.0" encoding="UTF-8"?>
<svg id="Layer_2" data-name="Layer 2" xmlns="http://www.w3.org/2000/svg" xmlns:xlink="http://www.w3.org/1999/xlink" viewBox="0 0 348.8 764">
  <defs>
    <style>
      .cls-1 {
        stroke-width: 1.8px;
      }

      .cls-1, .cls-2, .cls-3, .cls-4 {
        stroke: #000;
        stroke-miterlimit: 10;
      }

      .cls-1, .cls-5, .cls-3, .cls-4 {
        fill: #f3f3f4;
      }

      .cls-2 {
        fill: none;
      }

      .cls-2, .cls-3 {
        stroke-width: 2px;
      }

      .cls-6 {
        clip-path: url(#clippath-1);
      }

      .cls-7 {
        clip-path: url(#clippath);
      }

      .cls-4 {
        stroke-width: 2.1px;
      }
    </style>
    <clipPath id="clippath">
      <path class="cls-3" d="M92.19,762.94l96.03-14.48,2.13-49.86c.2-4.73-5.18-7.57-8.97-4.74-57.21,13.29-104.89,29.75-94.84,65.47.69,2.45,3.12,3.99,5.64,3.61Z"/>
    </clipPath>
    <clipPath id="clippath-1">
      <path class="cls-3" d="M308.64,714.69l28.7-92.09-42.84-23.1c-4.6-2.48-10.02,1.49-9.03,6.63-12.96,49.25-16.46,92.31,17.17,110.98,2.31,1.28,5.22.1,6.01-2.42Z"/>
    </clipPath>
  </defs>
  <g id="parallax_scroll_background" data-name="parallax scroll background">
    <g>
      <path class="cls-1" d="M164.92,201.15l-17.54-6.76c-17.52,13.41-29.5,32.92-37.68,56.64l7.41,14.15,24.26,9.35c11.82-16.91,18.97-42.68,23.56-73.38Z"/>
      <path class="cls-1" d="M273.49,192.06l-27.12,10.51c6.37,32.39,20.16,57.33,41.9,74.29l27.3-23.48c-13.4-28.55-27.05-53.81-42.08-61.32Z"/>
      <path class="cls-3" d="M49,168.19c5.75-.54,12.13-.38,15.8,2.11,2.86,5.52,2.75,10.22,0,14.2,41.62,30.33,66.17,55.67,80.97,78.16,4.05,8.26,3.69,15.22-12.08,17.64-38.4-16.41-71.94-36.79-75.89-81.38-1.09-5.29-3.79-17.57-39-14.42-4.51-2.62-9.78-7.51-17-14.2,7.83-3.39,16.74-3.34,23.62-2.46,7.83,1,15.73,1.08,23.58.35Z"/>
      <g>
        <g>
          <path class="cls-5" d="M92.19,762.94l96.03-14.48,2.13-49.86c.2-4.73-5.18-7.57-8.97-4.74-57.21,13.29-104.89,29.75-94.84,65.47.69,2.45,3.12,3.99,5.64,3.61Z"/>
          <g class="cls-7">
            <path class="cls-3" d="M188.67,737.83s-62.46,18.42-80,10.05c0,0,9.9-21.54-3.62-27.46-13.52-5.91,0,0,0,0l-20.73,4.04-8.97,30.26,1.17,34.45s63.66-6.12,64.47-6.54,45.76-24.68,45.76-24.68l1.92-20.13"/>
          </g>
          <path class="cls-2" d="M92.19,762.94l96.03-14.48,2.13-49.86c.2-4.73-5.18-7.57-8.97-4.74-57.21,13.29-104.89,29.75-94.84,65.47.69,2.45,3.12,3.99,5.64,3.61Z"/>
        </g>
        <g>
          <path class="cls-5" d="M308.64,714.69l28.7-92.09-42.84-23.1c-4.6-2.48-10.02,1.49-9.03,6.63-12.96,49.25-16.46,92.31,17.17,110.98,2.31,1.28,5.22.1,6.01-2.42Z"/>
          <g class="cls-6">
            <path class="cls-3" d="M325.58,616.27s-14.05,65.57-23.53,76.56c0,0-15.57-18.69-24.46-12.19-8.89,6.5-1.15,30.24-1.15,30.24l26.85,15.73,36.54-26.81,11.71-78.9-25.96-4.63"/>
          </g>
          <path class="cls-2" d="M308.64,714.69l28.7-92.09-42.84-23.1c-4.6-2.48-10.02,1.49-9.03,6.63-12.96,49.25-16.46,92.31,17.17,110.98,2.31,1.28,5.22.1,6.01-2.42Z"/>
        </g>
        <path class="cls-3" d="M183.74,708.58c-3.15-27.11-2.65-26.16,8.83-45.69l-28.14-5.58-17.72,52.89c7.8,7.03,21.38,4.43,37.03-1.62Z"/>
        <path class="cls-3" d="M285.03,642.78c9.84-6.2,13.22-16.45,12.68-29.15l-45.83-25.75-12.62,17.42,45.77,37.48Z"/>
        <path class="cls-3" d="M160.82,335.16l50.01,12.89c-12.25,59.21-28.88,109.82-55.14,141.57,24.83,2.28,76.07,40.85,123.95,101.95l-14.45,47.34c-47.52-51.29-99.12-89.16-155.66-109.72,5.09-60.56,20.1-124.52,51.29-194.04Z"/>
        <path class="cls-3" d="M275.73,333.33l-64.18,15.38c-38.63,97.55-50.36,211.93-65.48,332.96l49.07-1.37c53.85-142.54,76.43-253.94,80.59-346.97Z"/>
      </g>
      <path class="cls-4" d="M122.94,223.6l36.33,18.73,12.76-28.6c-34.02,66.19-38.52,125.92-44.32,154.1h142.32c12.54,0,22.05-11.31,19.88-23.67l-12.61-71.98-1.22-15.44c-.78-9.87.74-4.84-1.98-21.03l2.86,32.16,41.54.59c4.95-8.42-6.14-46.11-19.03-99.51-.6-16.51-14.07-26.95-37.03-28.85l-51.02-5.31c-20.37-4.63-41.53-4.74-46.29,15.18-2.58,20.5-37.39,47.75-42.2,73.63Z"/>
      <path class="cls-1" d="M222.96,103.52c.11,15.95-3.34,28.39-16.07,31.7,13.91,18.75,30.09,17.77,49.51,3.65,4-11.5,1.95-26.44-2.13-42.53l-31.32,7.18Z"/>
      <path class="cls-1" d="M273.99,58.04l1.56-6.41-5.32-21.86-55.54-7.68c-3.58,5.3-6.28,10.5-8.27,15.62-.8-1.21-2.44-1.2-4.81-.1-7.14,2.43-8.45,7.38-6.36,13.8,1.38,3.62,3.63,5.44,6.65,5.69-.77,8.77.06,17.35,1.57,25.85,4.51,13.96,11.87,20.64,20.92,23.04,14.88.51,26.6-3.59,36.74-10.02,2.78-1.76,4.75-4.54,5.53-7.74l2.31-9.51c2.31.56,3.43.19,4.82-.86,2.18-1.64,3.74-3.97,4.57-6.57l.89-2.79c.57-6.27-1.66-9.19-5.25-10.47Z"/>
      <g>
        <path class="cls-1" d="M286.44,21.46c-11.17-2.71-20.44-3.33-28.03-2.09-3.35.55-6.82-.77-8.77-3.55-2.78-3.99-9.61-8.01-19.3-12.06-14.36-4.74-24.4-4.01-27.6,5.4-3.05,7.6-6.1,13.22.15,19.95,16.37,10.56,36.81,18.88,55.95,10.05-2.6,12.06.03,22.86,7.8,32.4,14.04-9.79,27.48-19.87,27.3-36.6.64-7.17-1.28-12.17-7.5-13.5Z"/>
        <path class="cls-1" d="M236.84,88.81c-.96-4.75-3.32-8.43-10.33-8.56-.8-.02-1.61-.08-2.41-.2-5.22-.75-8.07,1.61-9.35,6.06-5.57-2.51-12.1-27.85-8.33-45.05-7.16,14.8-8,35.97-3.97,46.4,6.15,14.72,14.1,21.59,21.94,21.88,15.49.99,26.8-3.94,37.05-10.36,2.61-1.63,4.46-4.25,5.19-7.25l4.75-23.52-6.23.2c-8.74,14.55-17.85,20.68-28.31,20.4Z"/>
      </g>
      <path class="cls-1" d="M330.78,114.7c-9.57-3.02-16.08,3.18-20,17.15-2.12,13.25,1.9,20.46,10,23.64l6,4.67c-23.39,31.85-39.52,67.79-47.44,108.36,4.67,12.42,13.61,15.51,25.72,11.64,15.98-21.45,25.39-48.62,32.39-77.88l2.67-38.78c4.33-11.78,6.49-26.91,7.72-43.47.49-2.78-1.64-5.33-4.46-5.33h-12.59Z"/>
    </g>
  </g>
</svg>