<?xml version="1.0" encoding="UTF-8"?>
<svg id="Layer_1" data-name="Layer 1" xmlns="http://www.w3.org/2000/svg" viewBox="0 0 30 30">
  <defs>
    <style>
      .cls-1 {
        fill: #273e47;
        stroke-width: 0px;
      }
    </style>
  </defs>
  <path class="cls-1" d="M13.72,14.72v1.4c.24,0,.46,0,.69,0,.26,0,.51,0,.77,0,.2,0,.33.13.33.33,0,1.74,0,3.48,0,5.22,0,.19-.13.3-.32.3-1.33,0-2.66.03-3.99-.01-1.71-.06-3.2-1.28-3.6-3-.07-.3-.1-.61-.1-.92,0-2.37,0-4.75,0-7.12,0-1.95,1.38-3.57,3.31-3.89.19-.03.38-.04.57-.04,2.41,0,4.82,0,7.23,0,1.92,0,3.56,1.42,3.85,3.32.03.19.04.39.04.59,0,2.39,0,4.78,0,7.17,0,1.93-1.4,3.58-3.32,3.86-.4.06-.82.03-1.23.04-.2,0-.41,0-.61,0-.21,0-.34-.14-.34-.35,0-1.66,0-3.33,0-4.99,0-.05,0-.11,0-.16.01-.23.13-.35.37-.35.44,0,.89,0,1.34,0,.07-.47.15-.92.22-1.4-.08,0-.13,0-.19,0-.44,0-.89,0-1.33,0-.3,0-.41-.11-.41-.4,0-.52-.01-1.05.02-1.57.03-.45.33-.92,1-.9.36.01.73,0,1.1,0v-1.34c-.38-.02-.76-.06-1.14-.06-.59,0-1.17.12-1.69.42-.52.31-.79.76-.79,1.37,0,.69,0,1.39,0,2.08,0,.28-.11.39-.39.39-.41,0-.81,0-1.22,0-.06,0-.12,0-.19,0ZM17.66,14.07c.08,0,.14,0,.2,0,.47,0,.94,0,1.41,0,.27,0,.41.17.36.42-.1.65-.2,1.29-.31,1.94-.04.22-.15.32-.38.33-.32,0-.64,0-.96,0-.1,0-.21,0-.32,0v4.59c.48-.02.95,0,1.41-.06,1.64-.26,2.78-1.61,2.78-3.27,0-2.36,0-4.72,0-7.08,0-.25-.03-.5-.08-.74-.35-1.54-1.65-2.57-3.22-2.57-2.37,0-4.73,0-7.1,0-.18,0-.36,0-.54.04-1.65.29-2.77,1.62-2.77,3.28,0,2.35,0,4.71,0,7.06,0,.25.02.5.08.75.35,1.53,1.65,2.57,3.22,2.58,1.09,0,2.19,0,3.28,0,.05,0,.09,0,.14,0v-4.56c-.07,0-.13,0-.18,0-.42,0-.83,0-1.25,0-.24,0-.36-.11-.37-.35,0-.66,0-1.32,0-1.99,0-.24.14-.36.38-.36.38,0,.77,0,1.15,0,.09,0,.18,0,.27,0,0-.05,0-.08,0-.11,0-.59,0-1.18,0-1.78,0-.16.01-.32.05-.48.16-.74.63-1.22,1.3-1.52,1.07-.48,2.18-.47,3.31-.22.18.04.25.15.25.36,0,.6,0,1.2,0,1.79,0,.27-.12.38-.38.38-.46,0-.92,0-1.38,0-.24,0-.36.09-.36.33-.01.41,0,.82,0,1.25Z"/>
</svg>