<?xml version="1.0" encoding="UTF-8"?>
<svg id="Layer_1" data-name="Layer 1" xmlns="http://www.w3.org/2000/svg" viewBox="0 0 30 30">
  <defs>
    <style>
      .cls-1 {
        fill: #273e47;
        stroke-width: 0px;
      }
    </style>
  </defs>
  <path class="cls-1" d="M22.5,22.5h-5.01v-.19c0-1.91,0-3.81,0-5.72,0-.47-.27-.83-.7-.94-.09-.02-.19-.03-.29-.03-1,0-2,0-3,0-.51,0-.88.29-.98.75-.02.09-.02.18-.02.28,0,1.89,0,3.77,0,5.66v.18h-5.01c0-.05,0-.11,0-.16,0-2.86,0-5.72,0-8.58,0-.52.21-.94.61-1.26,1.96-1.55,3.93-3.09,5.89-4.64.62-.49,1.38-.48,2.01,0,1.28,1.01,2.56,2.02,3.84,3.02.04.03.08.06.14.1v-2.25h.63v.15c0,.83,0,1.65,0,2.48,0,.09.03.15.1.21.37.29.74.58,1.11.87.34.26.57.58.64,1.01,0,.01.02.02.02.04v9ZM11.87,21.86c0-.38,0-.75,0-1.12,0-1.38,0-2.77,0-4.15,0-.91.69-1.59,1.59-1.6,1.03,0,2.05,0,3.08,0,.14,0,.27.01.4.05.72.18,1.19.8,1.19,1.56,0,1.69,0,3.38,0,5.07v.18h3.73c0-.06,0-.1,0-.15,0-2.62,0-5.25,0-7.87,0-.38-.14-.66-.43-.9-1.94-1.52-3.87-3.04-5.8-4.56-.43-.34-.85-.34-1.28,0-1.93,1.52-3.87,3.04-5.8,4.56-.3.23-.43.52-.43.9,0,2.62,0,5.24,0,7.86,0,.05,0,.1,0,.16h3.73Z"/>
</svg>