<?xml version="1.0" encoding="UTF-8"?>
<svg id="Layer_1" data-name="Layer 1" xmlns="http://www.w3.org/2000/svg" viewBox="0 0 30 30">
  <defs>
    <style>
      .cls-1 {
        fill: #273e47;
        stroke-width: 0px;
      }
    </style>
  </defs>
  <path class="cls-1" d="M22.5,11.18v7.62c-.04.2-.07.41-.12.61-.44,1.76-2.01,3.05-3.79,3.07-2.39.02-4.78,0-7.17,0-.5,0-.99-.11-1.44-.32-1.59-.75-2.44-2-2.46-3.76-.03-2.27,0-4.55,0-6.82,0-.28.02-.56.08-.83.38-1.64,1.39-2.69,3.02-3.14.19-.05.39-.08.58-.12,2.54,0,5.08,0,7.61,0,.15.03.31.05.46.09,1.62.4,2.66,1.4,3.11,3.01.05.2.08.4.12.6ZM15.02,8.37c-1.12,0-2.23,0-3.35,0-.25,0-.51.02-.75.07-1.53.35-2.52,1.6-2.53,3.17,0,2.24,0,4.49,0,6.73,0,.24.02.49.07.73.35,1.53,1.6,2.52,3.17,2.53,2.24,0,4.49,0,6.73,0,.24,0,.49-.02.73-.07,1.52-.35,2.52-1.59,2.53-3.15,0-2.26,0-4.53,0-6.79,0-1.09-.45-1.98-1.34-2.63-.57-.41-1.21-.59-1.91-.59-1.12,0-2.23,0-3.35,0Z"/>
  <path class="cls-1" d="M19.1,14.98c0,2.26-1.84,4.11-4.1,4.1-2.26,0-4.09-1.84-4.1-4.1,0-2.26,1.84-4.11,4.1-4.1,2.26,0,4.09,1.84,4.1,4.1ZM18.22,14.86c-.07-1.87-1.72-3.27-3.56-3.07-1.66.18-3.05,1.68-2.85,3.55.17,1.66,1.68,3.05,3.55,2.85,1.67-.18,2.92-1.63,2.86-3.32Z"/>
  <path class="cls-1" d="M17.99,10.63c0-.66.56-1.21,1.21-1.21.66,0,1.21.56,1.21,1.22,0,.67-.56,1.22-1.23,1.21-.66,0-1.2-.55-1.2-1.22ZM19.21,10.32c-.18,0-.33.14-.33.32,0,.17.15.33.32.33.17,0,.33-.15.33-.32,0-.18-.14-.33-.32-.33Z"/>
</svg>