<?xml version="1.0" encoding="UTF-8"?>
<svg id="Layer_1" data-name="Layer 1" xmlns="http://www.w3.org/2000/svg" viewBox="0 0 30 30">
  <defs>
    <style>
      .cls-1 {
        fill: #f3f3f4;
        stroke-width: 0px;
      }
    </style>
  </defs>
  <path class="cls-1" d="M15.67,14.37c.29-.11.56-.25.86-.33.57-.14,1.15-.12,1.72.05.77.23,1.16.81,1.3,1.57.06.34.09.68.1,1.02.01,1.1,0,2.2,0,3.3,0,.23-.07.3-.29.3-.53,0-1.06,0-1.59,0-.23,0-.3-.07-.3-.29,0-.98,0-1.97,0-2.95,0-.23-.04-.47-.1-.7-.09-.34-.31-.49-.65-.5-.44-.02-.73.12-.83.46-.08.29-.12.61-.13.91-.02.91,0,1.82,0,2.74,0,.3-.04.34-.35.34-.49,0-.98,0-1.48,0-.24,0-.31-.07-.31-.3,0-1.91,0-3.81,0-5.72,0-.24.07-.3.31-.31.46,0,.93,0,1.39,0,.31,0,.35.04.35.35,0,.03,0,.06,0,.06ZM15.34,19.87c0-.28,0-.56,0-.83,0-.8,0-1.6.04-2.4.05-.86.64-1.31,1.48-1.2.37.05.66.23.79.57.1.26.19.54.19.81.03.95.01,1.9.02,2.85,0,.06,0,.13,0,.2.42,0,.81,0,1.2,0,.14,0,.17-.05.17-.18,0-.95,0-1.89,0-2.84,0-.37-.03-.75-.09-1.12-.1-.64-.44-1.11-1.1-1.29-.39-.1-.79-.12-1.18-.07-.48.06-.92.22-1.2.67-.04.06-.17.1-.24.08-.06-.02-.14-.13-.15-.2-.02-.18,0-.37,0-.56h-1.24v5.49h1.31Z"/>
  <path class="cls-1" d="M10.36,17.1c0-.95,0-1.89,0-2.84,0-.24.07-.31.3-.31.62,0,1.25,0,1.87,0,.24,0,.3.07.3.31,0,1.91,0,3.82,0,5.72,0,.23-.07.3-.29.3-.63,0-1.26,0-1.89,0-.23,0-.3-.07-.3-.3,0-.96,0-1.92,0-2.89ZM10.78,14.37s-.01.08-.01.12c0,1.75,0,3.49,0,5.24,0,.12.04.15.15.15.46,0,.92,0,1.38,0,.04,0,.08,0,.13-.01v-5.49h-1.64Z"/>
  <path class="cls-1" d="M11.6,11c.67,0,1.24.56,1.24,1.23,0,.68-.56,1.25-1.24,1.25-.68,0-1.24-.57-1.24-1.25,0-.67.57-1.23,1.24-1.23ZM11.62,13.07c.47-.01.82-.39.81-.85-.01-.45-.38-.82-.83-.81-.47,0-.84.39-.83.85.01.46.39.82.85.81Z"/>
  <path class="cls-1" d="M20.8,8.17c-.11-.02-.23-.03-.35-.03-.57,0-1.43,0-2.01,0h0c-.07,0-.12,0-.18,0-2.9,0-5.81,0-8.71,0-1.13,0-2.06.93-2.06,2.06,0,2.77,0,5.54,0,8.31v.17s0,1.93,0,2.41c0,1.11.93,2.04,2.04,2.04,3.64,0,7.28,0,10.92,0,1.11,0,2.04-.93,2.04-2.04,0-3.64,0-7.28,0-10.92,0-.97-.74-1.84-1.7-2.01ZM22.1,21.01c0,.15-.01.3-.05.44-.19.78-.85,1.29-1.67,1.29-3.59,0-7.18,0-10.77,0-.03,0-.07,0-.1,0-.81-.04-1.49-.62-1.58-1.43-.06-.49-.03-.99-.03-1.49,0-.06,0-.13,0-.19,0,0,0-.94,0-.94v-.2c0-2.72,0-5.44,0-8.16,0-.16.01-.33.05-.49.19-.78.85-1.29,1.69-1.29,2.86,0,5.73,0,8.59,0h.21c.55,0,1.38,0,1.91,0,1.01,0,1.74.73,1.74,1.73,0,3.58,0,7.16,0,10.74Z"/>
</svg>