<?xml version="1.0" encoding="UTF-8"?>
<svg id="Layer_2" data-name="Layer 2" xmlns="http://www.w3.org/2000/svg" xmlns:xlink="http://www.w3.org/1999/xlink" viewBox="0 0 44.97 40.22">
  <defs>
    <style>
      .cls-1 {
        fill: url(#linear-gradient);
      }

      .cls-1, .cls-2, .cls-3, .cls-4, .cls-5 {
        stroke-width: 0px;
      }

      .cls-2 {
        fill: #f9d391;
      }

      .cls-3 {
        fill: url(#linear-gradient-2);
      }

      .cls-4 {
        fill: url(#linear-gradient-3);
      }

      .cls-5 {
        fill: #c29434;
      }
    </style>
    <linearGradient id="linear-gradient" x1="9.85" y1="14.78" x2="44.97" y2="14.78" gradientUnits="userSpaceOnUse">
      <stop offset="0" stop-color="#f9d391"/>
      <stop offset="1" stop-color="#c29434"/>
    </linearGradient>
    <linearGradient id="linear-gradient-2" x1="0" y1="16.25" x2="15.03" y2="16.25" gradientUnits="userSpaceOnUse">
      <stop offset="0" stop-color="#bd9434"/>
      <stop offset="1" stop-color="#c29434"/>
    </linearGradient>
    <linearGradient id="linear-gradient-3" x1="32.2" y1="21.92" x2="23.74" y2="62.7" gradientTransform="translate(15.83 -12.9) rotate(30) scale(.83 .75)" xlink:href="#linear-gradient-2"/>
  </defs>
  <g id="Layer_1-2" data-name="Layer 1">
    <path class="cls-1" d="M43.9,20.97c-.31.77-.65,1.5-.99,2.06-2.55,4.16-6.79,7.68-17.88,6.19l3-3c4.18.64,7.02-.54,8.96-2.45,4.44-4.39,3.44-11.84-1.76-15.3-8.07-5.36-21.19-.26-25.19,7.74,0,0-1.51-7.26,4.22-13.11.8-.46,1.64-.85,2.54-1.24C19.44.74,22.27.05,25.14,0c7.44-.12,15.96,2.63,19.1,11.24,1.15,3.14.88,6.61-.34,9.72Z"/>
    <path class="cls-2" d="M39.03,13.22c5,14-14,16-14,16l1.53-2.43.42-.69c.05.12,11.92-6.35,12.05-12.88Z"/>
    <path class="cls-3" d="M15.03,20.22l-2.6,4.6-2.4,4.4c-.2.3-1.1.2-1.36-.04l-3.13-2.96L0,20.97S2.81,9.27,14.25,3.11c-5.73,5.85-4.22,13.11-4.22,13.11l5,4Z"/>
    <path class="cls-5" d="M22.37,40.21c-.34,0-1.32-2.97-1.34-3,0,0,0,0,0,0l4-8h0l1.2.18s0,0,0,0l11.1,10.81s0,0,0,0h-14.96s0,0,0,0Z"/>
    <path class="cls-4" d="M17.03,40.22H6.03S23.03,12.22,23.3,12.06l7.73,3.15c-.09.8-14,25-14,25Z"/>
  </g>
</svg>