<?xml version="1.0" encoding="UTF-8"?>
<svg id="Layer_1" data-name="Layer 1" xmlns="http://www.w3.org/2000/svg" viewBox="0 0 30 30">
  <defs>
    <style>
      .cls-1 {
        fill: #273e47;
        stroke-width: 0px;
      }
    </style>
  </defs>
  <path class="cls-1" d="M22.5,16.84c-.03.1-.05.2-.08.29-.27.96-1.12,1.61-2.12,1.61-.98,0-1.84-.66-2.1-1.62,0-.03-.02-.05-.03-.1-.04.05-.06.08-.09.11-.83,1.13-1.96,1.68-3.36,1.6-1.73-.11-3.19-1.47-3.43-3.19-.3-2.05,1.09-3.93,3.15-4.26,1.98-.32,3.92,1.07,4.25,3.06.04.26.05.53.06.8.01.55-.02,1.1.03,1.64.07.75.71,1.29,1.49,1.33.72.03,1.39-.48,1.55-1.19.03-.13.04-.26.04-.39,0-.6.01-1.2,0-1.8-.05-1.51-.56-2.85-1.5-4.02-1.11-1.38-2.55-2.23-4.3-2.49-2.09-.31-3.96.23-5.56,1.61-1.26,1.09-2.02,2.47-2.29,4.12-.47,2.88,1.03,5.83,3.63,7.16,1.16.59,2.39.85,3.69.75,1.15-.08,2.21-.44,3.18-1.06.06-.04.11-.08.17-.11.16-.1.34-.06.44.09.09.14.06.34-.09.44-.32.19-.63.39-.96.56-1.28.62-2.64.85-4.05.7-3.29-.34-6-2.85-6.59-6.08-.59-3.2.93-6.4,3.78-7.96.92-.5,1.91-.81,2.96-.89.04,0,.07-.02.11-.03.35,0,.7,0,1.05,0,.24.03.48.06.72.1,1.38.24,2.61.82,3.67,1.75,1.32,1.16,2.15,2.6,2.46,4.33.05.26.08.53.12.79v2.37ZM15,18.12c1.72,0,3.12-1.39,3.12-3.12,0-1.72-1.39-3.11-3.11-3.12-1.72-.01-3.13,1.4-3.13,3.12,0,1.72,1.4,3.12,3.12,3.12Z"/>
</svg>