<?xml version="1.0" encoding="UTF-8"?>
<svg id="Layer_1" data-name="Layer 1" xmlns="http://www.w3.org/2000/svg" viewBox="0 0 30 30">
  <defs>
    <style>
      .cls-1 {
        fill: #273e47;
        stroke-width: 0px;
      }
    </style>
  </defs>
  <path class="cls-1" d="M22.5,11.83c-.04.24-.08.49-.13.73-.25,1.15-.72,2.2-1.34,3.19-1.55,2.46-3.58,4.41-6.16,5.76-.84.44-1.72.76-2.66.91-1.06.17-2.08.09-3.01-.52-.39-.25-.69-.6-.99-.94-.1-.12-.2-.23-.3-.34-.63-.71-.52-1.81.23-2.39.53-.41,1.05-.82,1.58-1.24.64-.5,1.55-.47,2.16.09.3.28.6.56.88.86.1.1.17.11.3.05,1.79-.79,3.21-2.03,4.25-3.68.26-.41.47-.86.7-1.3.05-.09.04-.16-.04-.24-.28-.27-.54-.55-.81-.83-.67-.69-.68-1.64-.06-2.37.38-.44.72-.92,1.07-1.39.28-.38.65-.59,1.11-.67.02,0,.03-.02.05-.03.13,0,.25,0,.38,0,.02,0,.04.02.07.03.3.04.57.16.81.35.18.14.34.31.52.45.59.47,1.01,1.06,1.23,1.78.07.21.11.43.16.65v1.08ZM21.87,11.18c0-.84-.32-1.65-1.04-2.27-.19-.17-.38-.33-.57-.5-.5-.44-1.18-.37-1.58.15-.37.48-.73.97-1.11,1.44-.39.48-.39,1.06.05,1.51.34.35.67.69,1.01,1.04.13.13.15.27.08.43-1.14,2.67-3,4.61-5.7,5.71-.19.08-.34.05-.49-.09-.34-.35-.69-.69-1.05-1.02-.4-.38-.98-.41-1.39-.09-.53.41-1.06.83-1.6,1.24-.28.22-.39.51-.37.86.01.25.11.47.28.66.3.33.57.69.91.97.74.63,1.63.73,2.57.61.81-.11,1.58-.36,2.33-.71,1.24-.58,2.35-1.36,3.36-2.27,1.36-1.22,2.52-2.61,3.36-4.25.54-1.04.92-2.13.94-3.41Z"/>
</svg>