<?xml version="1.0" encoding="UTF-8"?>
<svg id="Layer_1" data-name="Layer 1" xmlns="http://www.w3.org/2000/svg" viewBox="0 0 30 30">
  <defs>
    <style>
      .cls-1 {
        fill: #f3f3f4;
        stroke-width: 0px;
      }
    </style>
  </defs>
  <path class="cls-1" d="M7.75,14.58c-.47-.52.41-1.26.88-.74.04.04.12.1.2.17,1.95,1.8,3.89,3.6,5.84,5.4.43.4.71.4,1.14,0,1.95-1.8,3.89-3.6,5.83-5.4.07-.07.15-.14.2-.2.39-.35,1.17.43.82.79-.04.04-.1.1-.17.16-1.96,1.81-3.92,3.62-5.87,5.43-.89.82-1.89.82-2.78,0-1.95-1.8-3.9-3.61-5.86-5.41-.07-.07-.17-.16-.24-.2Z"/>
  <path class="cls-1" d="M7.75,7.43c-.47-.52.41-1.26.88-.74.04.04.12.1.2.17,1.95,1.8,3.89,3.6,5.84,5.4.43.4.71.4,1.14,0,1.95-1.8,3.89-3.6,5.83-5.4.07-.07.15-.14.2-.2.39-.35,1.17.43.82.79-.04.04-.1.1-.17.16-1.96,1.81-3.92,3.62-5.87,5.43-.89.82-1.89.82-2.78,0-1.95-1.8-3.9-3.61-5.86-5.41-.07-.07-.17-.16-.24-.2Z"/>
</svg>