<?xml version="1.0" encoding="UTF-8"?>
<svg id="Layer_1" data-name="Layer 1" xmlns="http://www.w3.org/2000/svg" viewBox="0 0 30 30">
  <defs>
    <style>
      .cls-1 {
        fill: #f3f3f4;
        stroke-width: 0px;
      }
    </style>
  </defs>
  <path class="cls-1" d="M20.28,6.57c-.11-.02-.23-.03-.35-.03-.57,0-1.43,0-2.01,0h0c-.07,0-.12,0-.18,0-2.9,0-5.81,0-8.71,0-1.13,0-2.06.93-2.06,2.06,0,2.77,0,5.54,0,8.31v.17s0,1.93,0,2.41c0,1.11.93,2.04,2.04,2.04.87,0,1.73,0,2.6,0-.01-.13-.03-.26-.03-.4,0-1.93,1.3-3.91,2.89-3.91s2.89,1.98,2.89,3.91c0,.14-.02.26-.03.4.87,0,1.73,0,2.6,0,1.11,0,2.04-.93,2.04-2.04,0-3.64,0-7.28,0-10.92,0-.97-.74-1.84-1.7-2.01ZM21.58,19.41c0,.15-.01.3-.05.44-.19.78-.85,1.29-1.67,1.29-.6,0-1.43,0-2.02,0,0-.06,0-.11,0-.17-.16-2.33-1.47-4.17-3.35-4.17s-3.12,1.84-3.26,4.18c0,.05,0,.11,0,.16-.6,0-1.52,0-2.12,0-.03,0-.07,0-.1,0-.81-.04-1.49-.62-1.58-1.43-.06-.49-.03-.99-.03-1.49,0-.06,0-.13,0-.19,0,0,0-.94,0-.94v-.2c0-2.72,0-5.44,0-8.16,0-.16.01-.33.05-.49.19-.78.85-1.29,1.69-1.29,2.86,0,5.73,0,8.59,0h.21c.55,0,1.38,0,1.91,0,1.01,0,1.74.73,1.74,1.73,0,3.58,0,7.16,0,10.74Z"/>
  <path class="cls-1" d="M14.48,11.88c-1.15,0-2.08.93-2.08,2.08s.93,2.08,2.08,2.08,2.08-.93,2.08-2.08-.93-2.08-2.08-2.08ZM14.48,15.76c-.99,0-1.79-.8-1.79-1.79s.8-1.79,1.79-1.79,1.79.8,1.79,1.79-.8,1.79-1.79,1.79Z"/>
</svg>