<?xml version="1.0" encoding="UTF-8"?>
<svg id="Layer_1" data-name="Layer 1" xmlns="http://www.w3.org/2000/svg" viewBox="0 0 30 30">
  <defs>
    <style>
      .cls-1 {
        fill: #273e47;
        stroke-width: 0px;
      }
    </style>
  </defs>
  <path class="cls-1" d="M7.5,14.47c.04-.26.07-.53.12-.79.31-1.73,1.14-3.17,2.46-4.33,1.12-.98,2.42-1.58,3.89-1.78,1.91-.26,3.68.15,5.27,1.25,1.69,1.16,2.73,2.77,3.14,4.78.11.56.14,1.12.13,1.69,0,.21-.12.34-.3.34-.2,0-.32-.13-.33-.35-.02-.42,0-.85-.07-1.27-.08-.48-.23-.94-.36-1.41,0-.04-.07-.08-.11-.08-.99,0-1.97,0-2.97,0,.06.22.12.44.17.65.02.08.04.16.05.24.02.18-.09.31-.25.34-.18.03-.32-.06-.37-.24-.08-.28-.16-.56-.23-.84-.03-.12-.08-.16-.21-.16-1.68,0-3.36,0-5.04,0-.12,0-.17.04-.2.15-.36,1.09-.5,2.21-.32,3.34.08.47.23.94.34,1.4.02.09.07.1.15.1.32,0,.64,0,.97,0,.24,0,.38.18.33.4-.04.14-.16.23-.35.24-.26,0-.53,0-.81,0,.06.14.12.27.17.39.59,1.2,1.35,2.28,2.27,3.25.05.05.13.09.19.1.22.01.35.08.39.24.04.17-.02.29-.23.4h-.91c-.24-.03-.47-.06-.71-.1-1.52-.27-2.85-.93-3.97-2.01-1.16-1.12-1.89-2.48-2.18-4.08-.05-.26-.08-.53-.12-.79,0-.35,0-.7,0-1.05ZM11.65,12.52s-.06-.01-.08-.01c-.96,0-1.92,0-2.88,0-.1,0-.12.05-.14.12-.56,1.58-.57,3.16,0,4.74.03.1.08.13.18.13.93,0,1.85,0,2.78,0,.04,0,.08,0,.14,0-.54-1.66-.54-3.31,0-4.97ZM14.99,8.27c-1,1.07-1.82,2.25-2.41,3.59h4.82c-.28-.87-1.59-2.82-2.41-3.59ZM15.79,8.18s.07.08.1.12c.9,1.04,1.64,2.19,2.17,3.46.04.09.09.11.17.11.91,0,1.81,0,2.72,0,.04,0,.08,0,.13,0-.79-1.7-2.79-3.42-5.3-3.68ZM14.18,8.19c-2.5.27-4.5,2-5.27,3.68.03,0,.06,0,.09,0,.93,0,1.85,0,2.78,0,.09,0,.12-.04.16-.11.32-.79.73-1.53,1.22-2.22.33-.46.68-.9,1.02-1.35ZM8.9,18.13c.65,1.75,3.46,3.7,5.29,3.68,0,0,0-.01,0-.01-.02-.03-.04-.05-.06-.08-.91-1.05-1.66-2.2-2.19-3.48-.03-.08-.08-.1-.16-.1-.79,0-1.58,0-2.37,0-.16,0-.32,0-.5,0Z"/>
  <path class="cls-1" d="M17.63,22.5c-.41-.11-.63-.39-.79-.77-.76-1.71-1.55-3.41-2.32-5.12-.43-.95.09-1.99,1.11-2.21.3-.06.59-.04.87.09,1.8.81,3.59,1.63,5.39,2.44.37.17.59.45.6.86,0,.41-.2.7-.56.88-.68.34-1.35.68-2.03,1.01-.1.05-.17.11-.22.22-.3.62-.62,1.22-.92,1.85-.17.36-.38.64-.78.75h-.35ZM15.99,15.01c-.76,0-1.19.7-.9,1.35.25.56.5,1.11.76,1.66.55,1.2,1.09,2.4,1.64,3.6.04.09.13.19.22.23.16.08.3,0,.39-.2.37-.74.74-1.48,1.11-2.22.04-.08.12-.16.19-.2.74-.38,1.48-.74,2.22-1.11.13-.07.22-.15.22-.31,0-.16-.1-.24-.23-.3-1.76-.8-3.53-1.6-5.29-2.4-.13-.06-.27-.08-.34-.1Z"/>
</svg>